SplineFontDB: 3.0
FontName: Bodoni-72-Medium-Italic
FullName: Bodoni* 72 Medium Italic
FamilyName: Bodoni* 72 Medium
Weight: Medium
Copyright: Copyright (c) 2017, Owen Earl,,, (EwonRael@yahoo.com)
Version: 001.0
ItalicAngle: -13
UnderlinePosition: -408
UnderlineWidth: 204
Ascent: 3276
Descent: 820
InvalidEm: 0
LayerCount: 2
Layer: 0 0 "Back" 1
Layer: 1 0 "Fore" 0
PreferredKerning: 4
XUID: [1021 31 -699969567 16487490]
FSType: 0
OS2Version: 0
OS2_WeightWidthSlopeOnly: 0
OS2_UseTypoMetrics: 1
CreationTime: 1460762150
ModificationTime: 1573687024
PfmFamily: 17
TTFWeight: 500
TTFWidth: 5
LineGap: 0
VLineGap: 0
OS2TypoAscent: 4194
OS2TypoAOffset: 0
OS2TypoDescent: -820
OS2TypoDOffset: 0
OS2TypoLinegap: 0
OS2WinAscent: 4096
OS2WinAOffset: 0
OS2WinDescent: 1638
OS2WinDOffset: 0
HheadAscent: 4194
HheadAOffset: 0
HheadDescent: -820
HheadDOffset: 0
OS2CapHeight: 3072
OS2XHeight: 1884
OS2FamilyClass: 768
OS2Vendor: 'it* '
OS2UnicodeRanges: 00000001.00000000.00000000.00000000
Lookup: 1 0 0 "'ss04' Style Set 4 lookup 5" { "'ss04' Style Set 4 lookup 5-1"  } ['ss04' ('DFLT' <'dflt' > 'grek' <'dflt' > 'latn' <'dflt' > ) ]
Lookup: 1 0 0 "'ss02' Style Set 2 lookup 4" { "'ss02' Style Set 2 lookup 4-1"  } ['ss02' ('DFLT' <'dflt' > 'grek' <'dflt' > 'latn' <'dflt' > ) ]
Lookup: 1 0 0 "'ss03' Style Set 3 lookup 5" { "'ss03' Style Set 3 lookup 5-1"  } ['ss03' ('DFLT' <'dflt' > 'grek' <'dflt' > 'latn' <'dflt' > ) ]
Lookup: 1 0 0 "'ss01' Style Set 1 lookup 2" { "'ss01' Style Set 1 lookup 2-1"  } ['ss01' ('DFLT' <'dflt' > 'grek' <'dflt' > 'latn' <'dflt' > ) ]
Lookup: 5 0 0 "'calt' Contextual Alternates lookup 3" { "'calt' Contextual Alternates lookup 3-1"  } ['calt' ('DFLT' <'dflt' > 'grek' <'dflt' > 'latn' <'dflt' > ) ]
Lookup: 4 0 1 "'liga' Standard Ligatures lookup 0" { "'liga' Standard Ligatures lookup 0-1"  } ['liga' ('DFLT' <'dflt' > 'grek' <'dflt' > 'latn' <'dflt' > ) ]

StartChar: ampersand
Encoding: 38 38 0
GlifName: ampersand
Width: 3332
Flags: HMW
LayerCount: 2
Fore
SplineSet
1646 1853 m 17
 2003 2037 2165 2337 2165 2610 c 0
 2165 2872 2099 3100 1903 3100 c 0
 1603 3100 1477 2798 1477 2540 c 0
 1477 2397 1526 2199 1647 1925 c 2
 2328 389 l 2
 2398 219 2478 24 2642 24 c 0
 2800 24 2954 126 3026 290 c 1
 3038 286 l 1
 2960 106 2761 -41 2417 -41 c 0
 2118 -41 1906 74 1744 404 c 2
 1060 1925 l 2
 979 2096 944 2245 944 2388 c 0
 944 2798 1364 3113 1921 3113 c 0
 2277 3113 2652 2963 2652 2599 c 0
 2652 2131 2065 2009 1649 1842 c 1
 1646 1853 l 17
1205 1652 m 9
 1208 1640 l 1
 934 1476 634 1185 634 665 c 0
 634 393 829 2 1235 2 c 0
 2199 2 3247 917 3247 1470 c 2
 3247 1534 l 17
 3217 1383 3080 1270 2920 1270 c 0
 2736 1270 2623 1422 2623 1555 c 0
 2623 1709 2756 1839 2928 1839 c 0
 3135 1839 3263 1677 3263 1489 c 0
 3263 916 2228 -41 1051 -41 c 0
 475 -41 82 199 82 637 c 0
 82 1271 598 1416 1205 1652 c 9
EndSplineSet
EndChar

StartChar: period
Encoding: 46 46 1
GlifName: period
Width: 941
Flags: HMW
LayerCount: 2
Fore
SplineSet
71 266 m 0
 71 436 208 573 378 573 c 0
 548 573 686 436 686 266 c 0
 686 96 548 -40 378 -40 c 0
 208 -40 71 96 71 266 c 0
EndSplineSet
EndChar

StartChar: zero
Encoding: 48 48 2
GlifName: zero
Width: 2620
Flags: HMW
LayerCount: 2
Fore
SplineSet
1851 3112 m 0
 2395 3112 2716 2674 2716 2176 c 0
 2716 992 1957 -40 1155 -40 c 0
 611 -40 290 398 290 896 c 0
 290 2080 1049 3112 1851 3112 c 0
1851 3100 m 0
 1243 3100 794 1414 794 662 c 0
 794 330 850 -28 1155 -28 c 0
 1763 -28 2212 1679 2212 2410 c 0
 2212 2742 2156 3100 1851 3100 c 0
EndSplineSet
EndChar

StartChar: one
Encoding: 49 49 3
GlifName: one
Width: 1903
VWidth: 4730
Flags: HMW
LayerCount: 2
Fore
SplineSet
-164 12 m 1
 1249 12 l 1
 1249 0 l 1
 -164 0 l 1
 -164 12 l 1
978 3060 m 1
 500 3060 l 1
 500 3072 l 1
 1495 3072 l 1
 799 0 l 1
 286 0 l 1
 978 3060 l 1
EndSplineSet
EndChar

StartChar: two
Encoding: 50 50 4
GlifName: two
Width: 2364
VWidth: 4730
Flags: HMW
LayerCount: 2
Fore
SplineSet
393 2184 m 1
 417 2308 536 2435 720 2435 c 0
 872 2435 1009 2327 1009 2159 c 0
 1009 1965 856 1841 692 1841 c 0
 528 1841 376 1953 376 2166 c 0
 376 2646 852 3112 1454 3112 c 0
 1930 3112 2312 2898 2312 2468 c 0
 2312 2017 1640 1619 1356 1413 c 2
 151 491 l 1
 1916 491 l 1
 1982 799 l 1
 1996 799 l 1
 1819 0 l 1
 -168 0 l 1
 -90 338 l 1
 1058 1202 l 2
 1468 1507 1778 1988 1778 2384 c 0
 1778 2790 1632 3052 1282 3052 c 0
 826 3052 397 2609 393 2184 c 1
EndSplineSet
EndChar

StartChar: three
Encoding: 51 51 5
GlifName: three
Width: 2246
VWidth: 4730
Flags: HMW
LayerCount: 2
Fore
SplineSet
589 2488 m 0
 589 2802 958 3108 1458 3108 c 0
 1871 3108 2287 2984 2287 2524 c 0
 2287 2084 1869 1661 923 1661 c 1
 923 1671 l 1
 1575 1671 1762 2254 1762 2574 c 0
 1762 2908 1660 3081 1356 3081 c 0
 1026 3081 683 2865 622 2599 c 1
 652 2656 754 2741 884 2741 c 0
 1038 2741 1158 2628 1158 2464 c 0
 1158 2280 1007 2182 874 2182 c 0
 721 2182 589 2300 589 2488 c 0
20 604 m 0
 20 802 144 926 318 926 c 0
 471 926 590 813 590 645 c 0
 590 483 454 368 305 368 c 0
 163 368 62 462 38 548 c 1
 56 244 368 -24 844 -24 c 0
 1332 -24 1546 550 1546 993 c 0
 1546 1327 1441 1660 923 1660 c 1
 923 1670 l 1
 1787 1670 2072 1402 2072 942 c 0
 2072 379 1482 -40 884 -40 c 0
 292 -40 20 300 20 604 c 0
EndSplineSet
EndChar

StartChar: four
Encoding: 52 52 6
GlifName: four
Width: 2570
VWidth: 4730
Flags: HMW
LayerCount: 2
Fore
SplineSet
2180 12 m 1
 2180 0 l 1
 973 0 l 1
 973 12 l 1
 2180 12 l 1
2530 3072 m 1
 1832 0 l 1
 1321 0 l 1
 1964 2930 l 1
 188 884 l 1
 2488 884 l 1
 2488 876 l 1
 164 876 l 1
 2079 3072 l 1
 2530 3072 l 1
EndSplineSet
Substitution2: "'ss03' Style Set 3 lookup 5-1" four.alt
EndChar

StartChar: five
Encoding: 53 53 7
GlifName: five
Width: 2178
VWidth: 4730
Flags: HMW
LayerCount: 2
Fore
SplineSet
2044 1136 m 0
 2044 481 1379 -40 761 -40 c 0
 302 -40 0 245 0 559 c 0
 0 747 132 864 285 864 c 0
 418 864 568 767 568 583 c 0
 568 409 434 308 285 308 c 0
 143 308 37 403 17 484 c 1
 57 207 347 -23 721 -23 c 0
 1249 -23 1502 721 1502 1187 c 0
 1502 1553 1384 1870 1091 1870 c 0
 769 1870 469 1728 327 1514 c 1
 315 1514 l 1
 463 1748 800 1895 1172 1895 c 0
 1688 1895 2044 1668 2044 1136 c 0
2248 2581 m 1
 694 2581 l 1
 323 1514 l 1
 311 1514 l 1
 847 3072 l 1
 2341 3072 l 1
 2390 3298 l 1
 2404 3298 l 1
 2248 2581 l 1
EndSplineSet
EndChar

StartChar: six
Encoding: 54 54 8
GlifName: six
Width: 2394
VWidth: 4730
Flags: HMW
LayerCount: 2
Fore
SplineSet
1782 1320 m 0
 1782 1695 1706 1946 1500 1946 c 0
 948 1946 720 1043 720 604 c 1
 708 604 l 1
 708 1054 935 2013 1606 2013 c 0
 1958 2013 2314 1802 2314 1228 c 0
 2314 573 1679 -40 1041 -40 c 0
 567 -40 204 246 204 902 c 0
 204 1815 1195 3112 2416 3112 c 1
 2416 3100 l 1
 1428 3100 722 1746 722 740 c 1
 720 604 l 1
 720 270 819 -28 1057 -28 c 0
 1463 -28 1782 832 1782 1320 c 0
EndSplineSet
EndChar

StartChar: seven
Encoding: 55 55 9
GlifName: seven
Width: 2173
VWidth: 4730
Flags: HMW
LayerCount: 2
Fore
SplineSet
594 311 m 0
 594 655 1091 1155 1433 1595 c 0
 1643 1863 1915 2237 2168 2560 c 1
 549 2560 l 1
 481 2253 l 1
 468 2253 l 1
 646 3072 l 1
 2584 3072 l 1
 2584 3072 1873 2142 1484 1631 c 0
 1204 1257 942 970 942 786 c 0
 942 578 1238 581 1238 289 c 0
 1238 107 1111 -40 900 -40 c 0
 730 -40 594 80 594 311 c 0
EndSplineSet
EndChar

StartChar: eight
Encoding: 56 56 10
GlifName: eight
Width: 2375
VWidth: 4730
Flags: HMW
LayerCount: 2
Fore
SplineSet
1014 2088 m 0
 1014 1838 1065 1568 1298 1568 c 0
 1632 1568 1854 2075 1854 2518 c 0
 1854 2758 1804 3100 1566 3100 c 0
 1253 3100 1014 2531 1014 2088 c 0
492 2150 m 0
 492 2642 960 3112 1568 3112 c 0
 2094 3112 2375 2766 2375 2438 c 0
 2375 1936 1879 1557 1301 1557 c 0
 805 1557 492 1822 492 2150 c 0
634 574 m 0
 634 244 752 -28 1024 -28 c 0
 1399 -28 1628 541 1628 984 c 0
 1628 1314 1512 1557 1240 1557 c 0
 865 1557 634 1017 634 574 c 0
122 614 m 0
 122 1106 488 1566 1219 1566 c 0
 1827 1566 2150 1352 2150 942 c 0
 2150 450 1786 -40 1055 -40 c 0
 447 -40 122 204 122 614 c 0
EndSplineSet
EndChar

StartChar: A
Encoding: 65 65 12
GlifName: A_
Width: 3065
Flags: HMW
LayerCount: 2
Fore
SplineSet
-189 12 m 1
 711 12 l 1
 711 0 l 1
 -189 0 l 1
 -189 12 l 1
1470 12 m 1
 2780 12 l 1
 2780 0 l 1
 1470 0 l 1
 1470 12 l 1
772 1008 m 1
 2104 1008 l 1
 2104 1000 l 1
 772 1000 l 1
 772 1008 l 1
1678 2562 m 1
 197 0 l 1
 185 0 l 1
 1991 3134 l 1
 2105 3134 l 1
 2494 0 l 1
 1940 0 l 1
 1678 2562 l 1
EndSplineSet
EndChar

StartChar: B
Encoding: 66 66 13
GlifName: B_
Width: 2677
Flags: HMW
LayerCount: 2
Fore
SplineSet
1142 0 m 2
 -189 0 l 1
 -189 12 l 1
 1142 12 l 2
 1586 12 1899 516 1899 1064 c 0
 1899 1428 1724 1572 1432 1572 c 2
 936 1572 l 1
 936 1582 l 1
 1494 1582 l 2
 2072 1582 2474 1404 2474 964 c 0
 2474 350 1852 0 1142 0 c 2
896 3072 m 1
 1408 3072 l 1
 692 0 l 1
 179 0 l 1
 896 3072 l 1
1428 1572 m 2
 936 1572 l 1
 936 1582 l 1
 1428 1582 l 2
 1740 1582 2165 1950 2165 2540 c 0
 2165 2812 2042 3060 1731 3060 c 2
 527 3060 l 1
 527 3072 l 1
 1736 3072 l 2
 2416 3072 2698 2888 2698 2458 c 0
 2698 1946 2088 1572 1428 1572 c 2
EndSplineSet
EndChar

StartChar: C
Encoding: 67 67 14
GlifName: C_
Width: 2780
Flags: HMW
LayerCount: 2
Fore
SplineSet
1316 -40 m 0
 659 -40 220 376 220 1044 c 0
 220 2162 1049 3112 2023 3112 c 0
 2527 3112 2875 2788 2848 2202 c 1
 2834 2202 l 1
 2856 2802 2500 3086 2094 3086 c 0
 1248 3086 784 1677 784 778 c 0
 784 370 948 -16 1374 -16 c 0
 1892 -16 2348 369 2563 870 c 1
 2575 870 l 1
 2370 366 1902 -40 1316 -40 c 0
2834 2202 m 1
 2840 2310 l 1
 2828 2502 2786 2666 2696 2788 c 1
 3036 3072 l 1
 3048 3072 l 1
 2848 2202 l 1
 2834 2202 l 1
2563 870 m 1
 2575 870 l 1
 2350 0 l 1
 2337 0 l 1
 2146 279 l 1
 2262 389 2386 512 2504 732 c 1
 2563 870 l 1
EndSplineSet
EndChar

StartChar: D
Encoding: 68 68 15
GlifName: D_
Width: 2974
Flags: HMW
LayerCount: 2
Fore
SplineSet
917 3072 m 1
 1428 3072 l 1
 732 0 l 1
 220 0 l 1
 917 3072 l 1
1142 0 m 2
 -149 0 l 1
 -149 12 l 1
 1101 12 l 2
 1947 12 2402 1405 2402 2222 c 0
 2402 2598 2264 3060 1786 3060 c 2
 507 3060 l 1
 507 3072 l 1
 1818 3072 l 2
 2486 3072 2974 2706 2974 2008 c 0
 2974 920 2168 0 1142 0 c 2
EndSplineSet
EndChar

StartChar: E
Encoding: 69 69 16
GlifName: E_
Width: 2437
Flags: HMW
LayerCount: 2
Fore
SplineSet
503 3072 m 1
 2745 3072 l 1
 2549 2232 l 1
 2537 2232 l 1
 2609 2670 2437 3060 1957 3060 c 2
 503 3060 l 1
 503 3072 l 1
871 3072 m 1
 1384 3072 l 1
 670 0 l 1
 159 0 l 1
 871 3072 l 1
1236 1586 m 2
 955 1586 l 1
 955 1594 l 1
 1236 1594 l 2
 1470 1594 1737 1776 1829 2050 c 1
 1841 2050 l 1
 1626 1108 l 1
 1614 1108 l 1
 1645 1382 1470 1586 1236 1586 c 2
2073 0 m 1
 -189 0 l 1
 -189 12 l 1
 1244 12 l 2
 1806 12 2126 402 2275 922 c 1
 2287 922 l 1
 2073 0 l 1
EndSplineSet
EndChar

StartChar: F
Encoding: 70 70 17
GlifName: F_
Width: 2345
Flags: HMW
LayerCount: 2
Fore
SplineSet
1158 1524 m 2
 954 1524 l 1
 954 1532 l 1
 1158 1532 l 2
 1490 1532 1750 1705 1834 1979 c 1
 1846 1979 l 1
 1632 1057 l 1
 1620 1057 l 1
 1651 1331 1494 1524 1158 1524 c 2
-189 12 m 1
 1080 12 l 1
 1080 0 l 1
 -189 0 l 1
 -189 12 l 1
871 3072 m 1
 1384 3072 l 1
 670 0 l 1
 159 0 l 1
 871 3072 l 1
503 3072 m 1
 2694 3072 l 1
 2497 2232 l 1
 2485 2232 l 1
 2557 2670 2396 3060 1916 3060 c 2
 503 3060 l 1
 503 3072 l 1
EndSplineSet
EndChar

StartChar: G
Encoding: 71 71 18
GlifName: G_
Width: 3087
Flags: HMW
LayerCount: 2
Fore
SplineSet
2212 1167 m 1
 2762 1167 l 1
 2636 676 l 1
 2452 418 1984 -40 1316 -40 c 0
 670 -40 220 356 220 1044 c 0
 220 2182 1090 3112 2054 3112 c 0
 2558 3112 2920 2788 2887 2202 c 1
 2874 2202 l 1
 2904 2781 2550 3084 2125 3084 c 0
 1269 3084 784 1718 784 798 c 0
 784 380 896 -28 1292 -28 c 0
 1728 -28 1958 381 2040 512 c 1
 2212 1167 l 1
1828 1172 m 1
 3036 1172 l 1
 3036 1164 l 1
 1828 1164 l 1
 1828 1172 l 1
3078 3072 m 1
 3090 3072 l 1
 2887 2202 l 1
 2876 2202 l 1
 2882 2310 l 1
 2879 2463 2825 2661 2725 2800 c 1
 3078 3072 l 1
EndSplineSet
EndChar

StartChar: H
Encoding: 72 72 19
GlifName: H_
Width: 3066
Flags: HMW
LayerCount: 2
Fore
SplineSet
1561 12 m 1
 2780 12 l 1
 2780 0 l 1
 1561 0 l 1
 1561 12 l 1
2237 3072 m 1
 3456 3072 l 1
 3456 3060 l 1
 2237 3060 l 1
 2237 3072 l 1
2595 3072 m 1
 3108 3072 l 1
 2412 0 l 1
 1899 0 l 1
 2595 3072 l 1
-169 12 m 1
 1050 12 l 1
 1050 0 l 1
 -169 0 l 1
 -169 12 l 1
507 3072 m 1
 1726 3072 l 1
 1726 3060 l 1
 507 3060 l 1
 507 3072 l 1
875 3072 m 1
 1388 3072 l 1
 692 0 l 1
 179 0 l 1
 875 3072 l 1
872 1520 m 1
 2346 1520 l 1
 2346 1512 l 1
 872 1512 l 1
 872 1520 l 1
EndSplineSet
EndChar

StartChar: I
Encoding: 73 73 20
GlifName: I_
Width: 1550
Flags: HMW
LayerCount: 2
Fore
SplineSet
-169 12 m 1
 1264 12 l 1
 1264 0 l 1
 -169 0 l 1
 -169 12 l 1
507 3072 m 1
 1940 3072 l 1
 1940 3060 l 1
 507 3060 l 1
 507 3072 l 1
978 3072 m 1
 1490 3072 l 1
 794 0 l 1
 281 0 l 1
 978 3072 l 1
EndSplineSet
EndChar

StartChar: J
Encoding: 74 74 21
GlifName: J_
Width: 1934
Flags: HMW
LayerCount: 2
Fore
SplineSet
849 3072 m 1
 2324 3072 l 1
 2324 3060 l 1
 849 3060 l 1
 849 3072 l 1
-104 336 m 1
 -88 136 94 -106 378 -106 c 0
 628 -106 749 204 881 778 c 2
 1401 3072 l 1
 1914 3072 l 1
 1378 692 l 1
 1163 354 864 -122 409 -122 c 0
 73 -122 -128 144 -128 389 c 0
 -128 581 2 716 176 716 c 0
 319 716 468 611 468 413 c 0
 468 227 323 116 178 116 c 0
 36 116 -72 210 -104 336 c 1
EndSplineSet
Substitution2: "'ss02' Style Set 2 lookup 4-1" J.alt
EndChar

StartChar: K
Encoding: 75 75 22
GlifName: K_
Width: 2931
Flags: HMW
LayerCount: 2
Fore
SplineSet
-169 12 m 1
 1050 12 l 1
 1050 0 l 1
 -169 0 l 1
 -169 12 l 1
507 3072 m 1
 1746 3072 l 1
 1746 3060 l 1
 507 3060 l 1
 507 3072 l 1
875 3072 m 1
 1388 3072 l 1
 692 0 l 1
 179 0 l 1
 875 3072 l 1
606 888 m 1
 588 888 l 1
 2753 3070 l 1
 2774 3070 l 1
 606 888 l 1
1303 12 m 1
 2672 12 l 1
 2672 0 l 1
 1303 0 l 1
 1303 12 l 1
3178 3060 m 1
 2195 3060 l 1
 2195 3072 l 1
 3178 3072 l 1
 3178 3060 l 1
2322 0 m 1
 1758 0 l 1
 1248 1549 l 1
 1657 1938 l 1
 2322 0 l 1
EndSplineSet
EndChar

StartChar: L
Encoding: 76 76 23
GlifName: L_
Width: 2392
Flags: HMW
LayerCount: 2
Fore
SplineSet
871 3072 m 1
 1384 3072 l 1
 670 0 l 1
 159 0 l 1
 871 3072 l 1
503 3072 m 1
 1752 3072 l 1
 1752 3060 l 1
 503 3060 l 1
 503 3072 l 1
2058 0 m 1
 -189 0 l 1
 -189 12 l 1
 1208 12 l 2
 1852 12 2109 402 2258 922 c 1
 2272 922 l 1
 2058 0 l 1
EndSplineSet
EndChar

StartChar: M
Encoding: 77 77 24
GlifName: M_
Width: 3537
Flags: HMW
LayerCount: 2
Fore
SplineSet
2125 12 m 1
 3252 12 l 1
 3252 0 l 1
 2125 0 l 1
 2125 12 l 1
3566 3060 m 1
 2924 0 l 1
 2411 0 l 1
 3067 3072 l 1
 3824 3072 l 1
 3824 3060 l 1
 3566 3060 l 1
1729 700 m 1
 3063 3072 l 1
 3075 3072 l 1
 1326 -40 l 1
 1309 -40 l 1
 827 3072 l 1
 1342 3072 l 1
 1729 700 l 1
822 3060 m 1
 507 3060 l 1
 507 3072 l 1
 838 3072 l 1
 190 0 l 1
 178 0 l 1
 822 3060 l 1
-107 12 m 1
 525 12 l 1
 525 0 l 1
 -107 0 l 1
 -107 12 l 1
EndSplineSet
EndChar

StartChar: N
Encoding: 78 78 25
GlifName: N_
Width: 2984
Flags: HMW
LayerCount: 2
Fore
SplineSet
2953 3072 m 1
 2965 3072 l 1
 2257 -40 l 1
 2232 -40 l 1
 917 3072 l 1
 1530 3072 l 1
 2448 850 l 1
 2953 3072 l 1
2461 3072 m 1
 3374 3072 l 1
 3374 3060 l 1
 2461 3060 l 1
 2461 3072 l 1
-149 12 m 1
 754 12 l 1
 754 0 l 1
 -149 0 l 1
 -149 12 l 1
917 3060 m 1
 507 3060 l 1
 507 3072 l 1
 932 3072 l 1
 249 0 l 1
 237 0 l 1
 917 3060 l 1
EndSplineSet
EndChar

StartChar: O
Encoding: 79 79 26
GlifName: O_
Width: 3004
Flags: HMW
LayerCount: 2
Fore
SplineSet
1264 -40 m 0
 607 -40 220 376 220 1044 c 0
 220 2203 1090 3112 1962 3112 c 0
 2578 3112 3005 2696 3005 2028 c 0
 3005 869 2178 -40 1264 -40 c 0
1962 3100 m 0
 1270 3100 773 1686 773 736 c 0
 773 308 889 -28 1264 -28 c 0
 1996 -28 2452 1386 2452 2336 c 0
 2452 2682 2337 3100 1962 3100 c 0
EndSplineSet
EndChar

StartChar: P
Encoding: 80 80 27
GlifName: P_
Width: 2611
Flags: HMW
LayerCount: 2
Fore
SplineSet
875 3072 m 1
 1388 3072 l 1
 670 0 l 1
 159 0 l 1
 875 3072 l 1
-169 12 m 1
 1080 12 l 1
 1080 0 l 1
 -169 0 l 1
 -169 12 l 1
1388 1388 m 2
 938 1388 l 1
 938 1396 l 1
 1336 1396 l 2
 1874 1396 2162 2011 2162 2457 c 0
 2162 2699 2088 3060 1746 3060 c 2
 507 3060 l 1
 507 3072 l 1
 1798 3072 l 2
 2334 3072 2734 2878 2734 2386 c 0
 2734 1772 2212 1388 1388 1388 c 2
EndSplineSet
EndChar

StartChar: Q
Encoding: 81 81 28
GlifName: Q_
Width: 2974
Flags: HMW
LayerCount: 2
Fore
SplineSet
1848 -1012 m 1
 1848 -1024 l 1
 996 -1024 774 -699 978 9 c 1
 1164 -50 1378 -49 1572 9 c 1
 1368 -737 1495 -1012 1848 -1012 c 1
1962 3100 m 0
 1270 3100 773 1686 773 736 c 0
 773 318 889 -28 1264 -28 c 0
 1996 -28 2452 1386 2452 2336 c 0
 2452 2672 2337 3100 1962 3100 c 0
1264 -40 m 0
 607 -40 220 376 220 1044 c 0
 220 2203 1090 3112 1962 3112 c 0
 2578 3112 3005 2696 3005 2028 c 0
 3005 869 2178 -40 1264 -40 c 0
EndSplineSet
EndChar

StartChar: R
Encoding: 82 82 29
GlifName: R_
Width: 3035
Flags: HMW
LayerCount: 2
Fore
SplineSet
2749 50 m 1
 2601 -8 2498 -25 2330 -25 c 0
 1284 -25 2406 1572 1398 1572 c 2
 998 1572 l 1
 998 1582 l 1
 1531 1582 l 2
 2987 1582 2056 14 2540 14 c 0
 2616 14 2679 36 2745 61 c 1
 2749 50 l 1
957 3072 m 1
 1470 3072 l 1
 752 0 l 1
 241 0 l 1
 957 3072 l 1
-159 12 m 1
 1204 12 l 1
 1204 0 l 1
 -159 0 l 1
 -159 12 l 1
1551 1572 m 2
 998 1572 l 1
 998 1582 l 1
 1500 1582 l 2
 2068 1582 2314 2143 2314 2529 c 0
 2314 2729 2267 3060 1889 3060 c 2
 517 3060 l 1
 517 3072 l 1
 1961 3072 l 2
 2497 3072 2872 2908 2872 2458 c 0
 2872 1884 2375 1572 1551 1572 c 2
EndSplineSet
Substitution2: "'ss01' Style Set 1 lookup 2-1" R.alt
EndChar

StartChar: S
Encoding: 83 83 30
GlifName: S_
Width: 2353
Flags: HMW
LayerCount: 2
Fore
SplineSet
2290 2342 m 1
 2260 2504 2222 2667 2108 2834 c 1
 2485 3112 l 1
 2497 3112 l 1
 2300 2233 l 1
 2288 2233 l 1
 2290 2342 l 1
2300 2233 m 1
 2288 2233 l 1
 2256 2759 2005 3097 1500 3097 c 0
 1198 3097 888 2890 888 2550 c 0
 888 1803 2152 2039 2152 963 c 0
 2152 389 1619 -62 1000 -62 c 0
 362 -62 162 368 120 860 c 1
 132 860 l 1
 170 388 369 -46 990 -46 c 0
 1414 -46 1727 218 1727 604 c 0
 1727 1454 468 1219 468 2151 c 0
 468 2785 1077 3112 1490 3112 c 0
 2014 3112 2270 2769 2300 2233 c 1
-75 -40 m 1
 -87 -40 l 1
 120 860 l 1
 132 860 l 1
 147 692 l 1
 185 520 236 366 314 258 c 1
 -75 -40 l 1
EndSplineSet
EndChar

StartChar: T
Encoding: 84 84 31
GlifName: T_
Width: 2648
Flags: HMW
LayerCount: 2
Fore
SplineSet
380 12 m 1
 1794 12 l 1
 1794 0 l 1
 380 0 l 1
 380 12 l 1
1534 3072 m 1
 2046 3072 l 1
 1333 0 l 1
 822 0 l 1
 1534 3072 l 1
2363 3060 m 2
 1176 3060 l 2
 716 3060 464 2636 315 2120 c 1
 302 2120 l 1
 520 3072 l 1
 3060 3072 l 1
 2842 2120 l 1
 2830 2120 l 1
 2918 2640 2823 3060 2363 3060 c 2
EndSplineSet
EndChar

StartChar: U
Encoding: 85 85 32
GlifName: U_
Width: 2854
Flags: HMW
LayerCount: 2
Fore
SplineSet
2446 3072 m 1
 3244 3072 l 1
 3244 3060 l 1
 2446 3060 l 1
 2446 3072 l 1
501 3072 m 1
 1792 3072 l 1
 1792 3060 l 1
 501 3060 l 1
 501 3072 l 1
2872 3072 m 1
 2880 3072 l 1
 2388 942 l 2
 2240 298 1938 -62 1290 -62 c 0
 622 -62 242 270 398 942 c 2
 890 3072 l 1
 1402 3072 l 1
 910 984 l 2
 792 472 839 -32 1367 -32 c 0
 1939 -32 2236 316 2380 942 c 2
 2872 3072 l 1
EndSplineSet
EndChar

StartChar: V
Encoding: 86 86 33
GlifName: V_
Width: 3045
Flags: HMW
LayerCount: 2
Fore
SplineSet
3456 3060 m 1
 2555 3060 l 1
 2555 3072 l 1
 3456 3072 l 1
 3456 3060 l 1
1798 3060 m 1
 487 3060 l 1
 487 3072 l 1
 1798 3072 l 1
 1798 3060 l 1
1586 520 m 1
 3060 3072 l 1
 3073 3072 l 1
 1275 -48 l 1
 1162 -48 l 1
 773 3072 l 1
 1326 3072 l 1
 1586 520 l 1
EndSplineSet
EndChar

StartChar: W
Encoding: 87 87 34
GlifName: W_
Width: 4215
Flags: HMW
LayerCount: 2
Fore
SplineSet
1628 626 m 1
 2292 1770 l 1
 2304 1770 l 1
 1256 -40 l 1
 1160 -40 l 1
 842 3072 l 1
 1393 3072 l 1
 1628 626 l 1
2499 1708 m 1
 2486 1708 l 1
 3280 3072 l 1
 3292 3072 l 1
 2499 1708 l 1
4626 3060 m 1
 3837 3060 l 1
 3837 3072 l 1
 4626 3072 l 1
 4626 3060 l 1
3651 3060 m 1
 487 3060 l 1
 487 3072 l 1
 3651 3072 l 1
 3651 3060 l 1
2792 626 m 1
 4214 3072 l 1
 4226 3072 l 1
 2418 -40 l 1
 2350 -40 l 1
 2035 3072 l 1
 2552 3072 l 1
 2792 626 l 1
EndSplineSet
EndChar

StartChar: X
Encoding: 88 88 35
GlifName: X_
Width: 3075
Flags: HMW
LayerCount: 2
Fore
SplineSet
1662 1544 m 1
 1643 1544 l 1
 2869 3064 l 1
 2885 3064 l 1
 1662 1544 l 1
248 0 m 1
 232 0 l 1
 1643 1708 l 1
 1659 1708 l 1
 248 0 l 1
1551 12 m 1
 2822 12 l 1
 2822 0 l 1
 1551 0 l 1
 1551 12 l 1
-210 12 m 1
 773 12 l 1
 773 0 l 1
 -210 0 l 1
 -210 12 l 1
1900 3060 m 1
 629 3060 l 1
 629 3072 l 1
 1900 3072 l 1
 1900 3060 l 1
3324 3060 m 1
 2422 3060 l 1
 2422 3072 l 1
 3324 3072 l 1
 3324 3060 l 1
2538 0 m 1
 1945 0 l 1
 917 3072 l 1
 1494 3072 l 1
 2538 0 l 1
EndSplineSet
EndChar

StartChar: Y
Encoding: 89 89 36
GlifName: Y_
Width: 3024
Flags: HMW
LayerCount: 2
Fore
SplineSet
3436 3060 m 1
 2576 3060 l 1
 2576 3072 l 1
 3436 3072 l 1
 3436 3060 l 1
1788 3060 m 1
 487 3060 l 1
 487 3072 l 1
 1788 3072 l 1
 1788 3060 l 1
650 12 m 1
 1941 12 l 1
 1941 0 l 1
 650 0 l 1
 650 12 l 1
1871 1566 m 1
 3066 3064 l 1
 3082 3064 l 1
 1875 1550 l 1
 1531 0 l 1
 1018 0 l 1
 1366 1544 l 1
 773 3072 l 1
 1347 3072 l 1
 1871 1566 l 1
EndSplineSet
EndChar

StartChar: Z
Encoding: 90 90 37
GlifName: Z_
Width: 2365
Flags: HMW
LayerCount: 2
Fore
SplineSet
1993 3060 m 1
 1342 3060 l 2
 780 3060 549 2783 406 2345 c 1
 394 2345 l 1
 564 3072 l 1
 2632 3072 l 1
 2632 3060 l 1
 430 12 l 1
 1202 12 l 2
 1764 12 1987 293 2157 809 c 1
 2169 809 l 1
 1982 0 l 1
 -210 0 l 1
 -210 12 l 1
 1993 3060 l 1
EndSplineSet
EndChar

StartChar: a
Encoding: 97 97 38
GlifName: a
Width: 2538
VWidth: 4730
Flags: HMW
LayerCount: 2
Fore
SplineSet
1543 1286 m 0
 1543 1566 1466 1828 1278 1828 c 0
 944 1828 590 1091 590 543 c 0
 590 240 678 41 856 41 c 0
 1261 41 1543 830 1543 1286 c 0
1555 1286 m 0
 1555 844 1290 -40 712 -40 c 0
 430 -40 62 124 62 656 c 0
 62 1476 704 1925 1120 1925 c 0
 1432 1925 1555 1662 1555 1286 c 0
2458 668 m 1
 2302 258 2039 -40 1677 -40 c 0
 1454 -40 1356 63 1356 268 c 0
 1356 288 1360 341 1366 368 c 2
 1456 742 l 1
 1529 1024 l 1
 1547 1182 l 1
 1719 1884 l 1
 2182 1884 l 1
 1763 172 l 2
 1759 148 1755 118 1755 98 c 0
 1755 52 1774 18 1828 18 c 0
 2061 18 2311 303 2447 672 c 1
 2458 668 l 1
EndSplineSet
EndChar

StartChar: b
Encoding: 98 98 39
GlifName: b
Width: 2386
VWidth: 4730
Flags: HMW
LayerCount: 2
Fore
SplineSet
852 3060 m 1
 536 3060 l 1
 536 3072 l 1
 1326 3072 l 1
 742 522 l 1
 742 249 804 -28 1013 -28 c 0
 1388 -28 1736 810 1736 1358 c 0
 1736 1621 1649 1836 1471 1836 c 0
 1197 1836 946 1440 836 942 c 1
 826 942 l 1
 982 1647 1290 1922 1622 1922 c 0
 1896 1922 2264 1794 2264 1270 c 0
 2264 410 1648 -40 1007 -40 c 0
 634 -40 399 193 266 492 c 1
 852 3060 l 1
EndSplineSet
EndChar

StartChar: c
Encoding: 99 99 40
GlifName: c
Width: 1961
VWidth: 4730
Flags: HMW
LayerCount: 2
Fore
SplineSet
1868 1478 m 1
 1846 1710 1644 1898 1328 1898 c 0
 830 1898 590 1072 590 564 c 0
 590 220 647 0 849 0 c 0
 1126 0 1467 184 1683 586 c 1
 1695 586 l 1
 1487 188 1124 -40 732 -40 c 0
 422 -40 62 124 62 646 c 0
 62 1424 674 1926 1251 1926 c 0
 1627 1926 1890 1726 1890 1422 c 0
 1890 1204 1748 1091 1595 1091 c 0
 1462 1091 1312 1178 1312 1362 c 0
 1312 1536 1468 1634 1596 1634 c 0
 1755 1634 1834 1568 1868 1478 c 1
EndSplineSet
EndChar

StartChar: d
Encoding: 100 100 41
GlifName: d
Width: 2558
VWidth: 4730
Flags: HMW
LayerCount: 2
Fore
SplineSet
2478 668 m 1
 2322 258 2060 -40 1698 -40 c 0
 1475 -40 1360 54 1360 278 c 0
 1360 298 1365 344 1369 368 c 2
 1457 745 l 1
 1529 1032 l 1
 1547 1176 l 1
 1971 3060 l 1
 1591 3060 l 1
 1591 3072 l 1
 2442 3072 l 1
 1788 172 l 2
 1784 148 1780 118 1780 98 c 0
 1780 52 1796 16 1852 16 c 0
 2082 16 2336 300 2470 672 c 1
 2478 668 l 1
1543 1286 m 0
 1543 1566 1466 1828 1278 1828 c 0
 944 1828 590 1091 590 543 c 0
 590 240 678 41 856 41 c 0
 1261 41 1543 830 1543 1286 c 0
1555 1286 m 0
 1555 844 1290 -40 712 -40 c 0
 430 -40 62 124 62 656 c 0
 62 1476 704 1925 1120 1925 c 0
 1432 1925 1555 1662 1555 1286 c 0
EndSplineSet
EndChar

StartChar: e
Encoding: 101 101 42
GlifName: e
Width: 1992
VWidth: 4730
Flags: HMW
LayerCount: 2
Fore
SplineSet
590 524 m 0
 590 251 638 -5 860 -5 c 0
 1230 -5 1554 281 1724 586 c 1
 1736 586 l 1
 1566 270 1218 -40 764 -40 c 0
 402 -40 62 154 62 646 c 0
 62 1426 697 1926 1264 1926 c 0
 1650 1926 1932 1808 1932 1514 c 0
 1932 918 976 888 522 888 c 1
 522 894 l 1
 896 894 1466 996 1466 1554 c 0
 1466 1726 1431 1912 1299 1912 c 0
 976 1912 590 1176 590 524 c 0
EndSplineSet
EndChar

StartChar: f
Encoding: 102 102 43
GlifName: f
Width: 1537
VWidth: 4730
Flags: HMW
LayerCount: 2
Fore
SplineSet
247 1884 m 1
 1651 1884 l 1
 1651 1872 l 1
 247 1872 l 1
 247 1884 l 1
2164 2766 m 1
 2136 2913 1967 3098 1688 3098 c 0
 1402 3098 1208 2712 1119 2212 c 2
 710 -50 l 2
 604 -636 205 -1064 -327 -1064 c 0
 -689 -1064 -855 -821 -855 -629 c 0
 -855 -441 -734 -334 -581 -334 c 0
 -448 -334 -300 -412 -300 -596 c 0
 -300 -780 -439 -870 -588 -870 c 0
 -694 -870 -790 -803 -822 -718 c 1
 -794 -865 -629 -1050 -350 -1050 c 0
 -64 -1050 131 -664 220 -164 c 2
 629 2098 l 2
 735 2684 1132 3112 1664 3112 c 0
 2026 3112 2194 2869 2194 2677 c 0
 2194 2489 2073 2382 1920 2382 c 0
 1787 2382 1638 2460 1638 2644 c 0
 1638 2828 1777 2918 1926 2918 c 0
 2032 2918 2132 2849 2164 2766 c 1
EndSplineSet
EndChar

StartChar: g
Encoding: 103 103 44
GlifName: g
Width: 2422
VWidth: 4730
Flags: HMW
LayerCount: 2
Fore
SplineSet
548 -74 m 1
 384 -126 258 -338 258 -582 c 0
 258 -830 358 -1049 690 -1049 c 0
 1076 -1049 1603 -846 1603 -397 c 0
 1603 -175 1483 -88 1257 -88 c 0
 1171 -88 896 -88 806 -88 c 0
 438 -88 139 -22 139 232 c 0
 139 547 624 668 907 668 c 1
 907 656 l 1
 771 656 481 618 481 454 c 0
 481 354 676 313 902 313 c 0
 1046 313 1152 317 1266 317 c 0
 1604 317 1782 180 1782 -172 c 0
 1782 -709 1244 -1064 680 -1064 c 0
 208 -1064 -184 -951 -184 -633 c 0
 -184 -229 348 -74 532 -74 c 2
 548 -74 l 1
2504 1592 m 0
 2504 1388 2382 1317 2270 1317 c 0
 2158 1317 2040 1390 2040 1546 c 0
 2040 1670 2152 1766 2282 1766 c 0
 2402 1766 2486 1672 2496 1602 c 1
 2479 1798 2342 1892 2166 1892 c 0
 1989 1892 1740 1747 1568 1418 c 1
 1557 1422 l 1
 1731 1764 1992 1904 2166 1904 c 0
 2390 1904 2504 1755 2504 1592 c 0
906 668 m 0
 1208 668 1383 1242 1383 1566 c 0
 1383 1726 1322 1912 1182 1912 c 0
 880 1912 705 1338 705 1014 c 0
 705 854 766 668 906 668 c 0
901 656 m 0
 539 656 242 800 242 1168 c 0
 242 1618 702 1926 1187 1926 c 0
 1549 1926 1844 1782 1844 1414 c 0
 1844 964 1386 656 901 656 c 0
EndSplineSet
EndChar

StartChar: h
Encoding: 104 104 45
GlifName: h
Width: 2436
VWidth: 4730
Flags: HMW
LayerCount: 2
Fore
SplineSet
1544 1259 m 2
 1650 1574 1674 1878 1506 1878 c 0
 1168 1878 857 1334 710 708 c 1
 702 708 l 1
 855 1338 1138 1926 1610 1926 c 0
 2018 1926 2146 1640 2030 1284 c 2
 1658 158 l 2
 1650 134 1646 104 1646 84 c 0
 1646 38 1670 8 1724 8 c 0
 1963 8 2201 280 2344 669 c 1
 2354 668 l 1
 2198 258 1958 -40 1596 -40 c 0
 1363 -40 1234 68 1234 264 c 0
 1234 326 1247 375 1256 407 c 2
 1544 1259 l 2
779 3060 m 1
 497 3060 l 1
 497 3072 l 1
 1254 3072 l 1
 548 0 l 1
 77 0 l 1
 779 3060 l 1
EndSplineSet
EndChar

StartChar: i
Encoding: 105 105 46
GlifName: i
Width: 1406
VWidth: 4730
Flags: HMW
LayerCount: 2
Fore
SplineSet
626 2816 m 0
 626 2982 756 3112 922 3112 c 0
 1088 3112 1219 2982 1219 2816 c 0
 1219 2650 1088 2520 922 2520 c 0
 756 2520 626 2650 626 2816 c 0
1322 668 m 1
 1166 258 904 -40 542 -40 c 0
 319 -40 204 54 204 278 c 0
 204 298 207 344 212 368 c 2
 564 1872 l 1
 261 1872 l 1
 261 1884 l 1
 1038 1884 l 1
 628 172 l 2
 624 148 620 118 620 98 c 0
 620 52 640 16 694 16 c 0
 926 16 1171 286 1314 672 c 1
 1322 668 l 1
EndSplineSet
EndChar

StartChar: j
Encoding: 106 106 47
GlifName: j
Width: 1149
VWidth: 4730
Flags: HMW
LayerCount: 2
Fore
SplineSet
658 2816 m 0
 658 2982 790 3112 956 3112 c 0
 1122 3112 1252 2982 1252 2816 c 0
 1252 2650 1122 2520 956 2520 c 0
 790 2520 658 2650 658 2816 c 0
-749 -682 m 1
 -719 -865 -534 -1050 -306 -1050 c 0
 72 -1050 70 -410 184 82 c 2
 602 1872 l 1
 218 1872 l 1
 218 1884 l 1
 1062 1884 l 1
 660 -50 l 2
 554 -562 248 -1064 -284 -1064 c 0
 -594 -1064 -778 -800 -778 -618 c 0
 -778 -430 -625 -302 -472 -302 c 0
 -339 -302 -213 -398 -213 -560 c 0
 -213 -732 -358 -838 -512 -838 c 0
 -636 -838 -713 -759 -749 -682 c 1
EndSplineSet
EndChar

StartChar: k
Encoding: 107 107 48
GlifName: k
Width: 2388
VWidth: 4730
Flags: HMW
LayerCount: 2
Fore
SplineSet
2302 668 m 1
 2146 258 1894 -40 1542 -40 c 0
 1319 -40 1198 54 1198 278 c 0
 1198 298 1202 344 1206 368 c 2
 1248 574 l 2
 1301 812 1449 1160 1186 1160 c 0
 937 1160 869 928 836 778 c 1
 826 778 l 1
 904 1132 1065 1189 1263 1189 c 0
 1545 1189 1809 1028 1687 496 c 2
 1600 114 l 2
 1600 106 1596 86 1596 78 c 0
 1596 32 1624 12 1678 12 c 0
 1912 12 2155 298 2293 672 c 1
 2302 668 l 1
924 1024 m 1
 932 1032 l 1
 948 1020 992 1004 1047 1004 c 0
 1229 1004 1316 1214 1422 1476 c 0
 1536 1754 1692 1926 1906 1926 c 0
 2110 1926 2266 1785 2266 1553 c 0
 2266 1359 2143 1266 2010 1266 c 0
 1877 1266 1766 1365 1766 1511 c 0
 1766 1645 1874 1744 2008 1744 c 0
 2140 1744 2226 1662 2252 1576 c 1
 2242 1776 2111 1914 1907 1914 c 0
 1701 1914 1550 1754 1434 1470 c 0
 1321 1192 1231 992 1047 992 c 0
 989 992 941 1012 924 1024 c 1
892 3060 m 1
 528 3060 l 1
 528 3072 l 1
 1368 3072 l 1
 654 0 l 1
 184 0 l 1
 892 3060 l 1
EndSplineSet
EndChar

StartChar: l
Encoding: 108 108 49
GlifName: l
Width: 1361
VWidth: 4730
Flags: HMW
LayerCount: 2
Fore
SplineSet
1281 668 m 1
 1125 258 862 -40 500 -40 c 0
 277 -40 164 54 164 278 c 0
 164 298 168 344 172 368 c 2
 789 3060 l 1
 409 3060 l 1
 409 3072 l 1
 1261 3072 l 1
 588 172 l 2
 584 148 580 118 580 98 c 0
 580 52 598 16 652 16 c 0
 888 16 1136 308 1273 672 c 1
 1281 668 l 1
EndSplineSet
EndChar

StartChar: m
Encoding: 109 109 50
GlifName: m
Width: 3561
VWidth: 4730
Flags: HMW
LayerCount: 2
Fore
SplineSet
2668 1259 m 2
 2774 1574 2809 1868 2641 1868 c 0
 2321 1868 2019 1361 1861 708 c 1
 1853 708 l 1
 2008 1330 2284 1926 2752 1926 c 0
 3160 1926 3269 1640 3153 1284 c 2
 2783 158 l 2
 2775 134 2771 104 2771 84 c 0
 2771 38 2795 7 2849 7 c 0
 3097 7 3330 294 3471 672 c 1
 3479 668 l 1
 3323 258 3082 -40 2720 -40 c 0
 2487 -40 2359 68 2359 264 c 0
 2359 326 2371 375 2380 407 c 2
 2668 1259 l 2
1689 0 m 17
 1218 0 l 1
 1526 1262 l 2
 1604 1586 1669 1868 1501 1868 c 0
 1181 1868 873 1362 720 708 c 1
 712 708 l 1
 861 1324 1140 1926 1612 1926 c 0
 2020 1926 2095 1656 2009 1306 c 2
 1689 0 l 17
528 1872 m 1
 246 1872 l 1
 246 1884 l 1
 1004 1884 l 1
 552 0 l 1
 82 0 l 1
 528 1872 l 1
EndSplineSet
EndChar

StartChar: n
Encoding: 110 110 51
GlifName: n
Width: 2456
VWidth: 4730
Flags: HMW
LayerCount: 2
Fore
SplineSet
524 1872 m 1
 242 1872 l 1
 242 1884 l 1
 1000 1884 l 1
 548 0 l 1
 77 0 l 1
 524 1872 l 1
1544 1259 m 2
 1650 1574 1674 1878 1506 1878 c 0
 1168 1878 863 1334 716 708 c 1
 708 708 l 1
 861 1338 1138 1926 1610 1926 c 0
 2018 1926 2146 1640 2030 1284 c 2
 1658 158 l 2
 1650 134 1646 104 1646 84 c 0
 1646 38 1670 8 1724 8 c 0
 1963 8 2217 280 2360 669 c 1
 2371 668 l 1
 2215 258 1958 -40 1596 -40 c 0
 1363 -40 1234 68 1234 264 c 0
 1234 326 1247 375 1256 407 c 2
 1544 1259 l 2
EndSplineSet
EndChar

StartChar: o
Encoding: 111 111 52
GlifName: o
Width: 2199
VWidth: 4730
Flags: HMW
LayerCount: 2
Fore
SplineSet
835 -40 m 0
 453 -40 62 144 62 666 c 0
 62 1444 674 1926 1302 1926 c 0
 1684 1926 2077 1740 2077 1218 c 0
 2077 440 1463 -40 835 -40 c 0
835 -25 m 0
 1301 -25 1570 874 1570 1382 c 0
 1570 1696 1493 1909 1302 1909 c 0
 836 1909 570 1010 570 502 c 0
 570 188 644 -25 835 -25 c 0
EndSplineSet
EndChar

StartChar: p
Encoding: 112 112 53
GlifName: p
Width: 2354
VWidth: 4730
Flags: HMW
LayerCount: 2
Fore
SplineSet
762 597 m 0
 762 317 842 55 1030 55 c 0
 1364 55 1724 792 1724 1340 c 0
 1724 1643 1626 1842 1448 1842 c 0
 1043 1842 762 1053 762 597 c 0
754 597 m 0
 754 1039 1014 1925 1592 1925 c 0
 1874 1925 2252 1759 2252 1227 c 0
 2252 407 1602 -40 1186 -40 c 0
 874 -40 754 221 754 597 c 0
-390 -1012 m 1
 634 -1012 l 1
 634 -1024 l 1
 -390 -1024 l 1
 -390 -1012 l 1
544 1872 m 1
 254 1872 l 1
 254 1884 l 1
 1020 1884 l 1
 851 1164 l 1
 798 941 l 1
 774 786 l 1
 348 -1024 l 1
 -122 -1024 l 1
 544 1872 l 1
EndSplineSet
EndChar

StartChar: q
Encoding: 113 113 54
GlifName: q
Width: 2314
VWidth: 4730
Flags: HMW
LayerCount: 2
Fore
SplineSet
1778 -1012 m 1
 1778 -1024 l 1
 774 -1024 l 1
 774 -1012 l 1
 1778 -1012 l 1
1492 -1024 m 17
 1040 -1024 l 1
 1448 716 l 1
 1480 813 1507 928 1529 1045 c 1
 1547 1183 l 1
 1704 1844 l 1
 2170 1926 l 1
 1492 -1024 l 17
1543 1286 m 0
 1543 1566 1466 1828 1278 1828 c 0
 944 1828 590 1091 590 543 c 0
 590 240 678 41 856 41 c 0
 1261 41 1543 830 1543 1286 c 0
1555 1286 m 0
 1555 844 1290 -40 712 -40 c 0
 430 -40 62 124 62 656 c 0
 62 1476 704 1925 1120 1925 c 0
 1432 1925 1555 1662 1555 1286 c 0
EndSplineSet
EndChar

StartChar: r
Encoding: 114 114 55
GlifName: r
Width: 1782
VWidth: 4730
Flags: HMW
LayerCount: 2
Fore
SplineSet
1886 1542 m 0
 1886 1376 1783 1242 1597 1242 c 0
 1431 1242 1306 1339 1306 1517 c 0
 1306 1681 1433 1804 1592 1804 c 0
 1718 1804 1820 1730 1860 1626 c 1
 1824 1798 1655 1912 1469 1912 c 0
 1017 1912 827 1110 732 708 c 1
 724 708 l 1
 830 1176 1021 1926 1469 1926 c 0
 1681 1926 1886 1773 1886 1542 c 0
548 1872 m 1
 246 1872 l 1
 246 1884 l 1
 1004 1884 l 1
 574 0 l 1
 102 0 l 1
 548 1872 l 1
EndSplineSet
EndChar

StartChar: s
Encoding: 115 115 56
GlifName: s
Width: 1727
VWidth: 4730
Flags: HMW
LayerCount: 2
Fore
SplineSet
1526 1568 m 1
 1492 1758 1261 1908 948 1908 c 0
 720 1908 562 1776 562 1608 c 0
 562 1178 1462 1146 1462 602 c 0
 1462 216 1084 -50 656 -50 c 0
 188 -50 -20 214 -20 440 c 0
 -20 618 120 714 252 714 c 0
 364 714 507 638 507 464 c 0
 507 310 382 220 254 220 c 0
 106 220 17 320 1 402 c 1
 21 180 240 -36 656 -36 c 0
 942 -36 1122 132 1122 330 c 0
 1122 738 228 722 228 1320 c 0
 228 1726 618 1922 948 1922 c 0
 1310 1922 1544 1722 1544 1520 c 0
 1544 1352 1436 1272 1304 1272 c 0
 1192 1272 1066 1348 1066 1502 c 0
 1066 1634 1178 1726 1292 1726 c 0
 1416 1726 1492 1659 1526 1568 c 1
EndSplineSet
EndChar

StartChar: t
Encoding: 116 116 57
GlifName: t
Width: 1395
VWidth: 4730
Flags: HMW
LayerCount: 2
Fore
SplineSet
168 1884 m 1
 1376 1884 l 1
 1376 1872 l 1
 168 1872 l 1
 168 1884 l 1
1306 668 m 1
 1150 258 888 -40 526 -40 c 0
 303 -40 185 54 185 278 c 0
 185 298 189 344 194 368 c 2
 614 2294 l 1
 1080 2294 l 1
 614 172 l 2
 610 148 606 118 606 98 c 0
 606 52 626 20 680 20 c 0
 926 20 1164 312 1298 672 c 1
 1306 668 l 1
EndSplineSet
EndChar

StartChar: u
Encoding: 117 117 58
GlifName: u
Width: 2585
VWidth: 4730
Flags: HMW
LayerCount: 2
Fore
SplineSet
1021 1884 m 1
 710 564 l 2
 636 240 632 26 806 26 c 0
 1092 26 1416 516 1578 1176 c 1
 1591 1176 l 1
 1426 536 1134 -40 666 -40 c 0
 268 -40 177 242 251 578 c 2
 541 1872 l 1
 255 1872 l 1
 255 1884 l 1
 1021 1884 l 1
2504 668 m 1
 2348 258 2086 -40 1724 -40 c 0
 1501 -40 1384 54 1384 278 c 0
 1384 298 1388 344 1392 368 c 2
 1733 1884 l 1
 2209 1884 l 1
 1808 172 l 2
 1804 148 1800 118 1800 98 c 0
 1800 52 1820 20 1874 20 c 0
 2129 20 2366 327 2496 672 c 1
 2504 668 l 1
EndSplineSet
EndChar

StartChar: v
Encoding: 118 118 59
GlifName: v
Width: 2307
VWidth: 4730
Flags: HMW
LayerCount: 2
Fore
SplineSet
994 524 m 2
 940 200 892 2 1122 2 c 0
 1553 2 2234 756 2234 1410 c 0
 2234 1553 2210 1639 2186 1683 c 1
 2186 1575 2084 1352 1876 1352 c 0
 1666 1352 1575 1503 1575 1636 c 0
 1575 1789 1700 1922 1882 1922 c 0
 2150 1922 2248 1670 2248 1410 c 0
 2248 757 1567 -40 1022 -40 c 0
 594 -40 459 211 525 567 c 2
 734 1712 l 2
 738 1736 743 1766 743 1786 c 0
 743 1832 718 1864 660 1864 c 0
 402 1864 181 1540 53 1212 c 1
 40 1216 l 1
 206 1626 438 1926 821 1926 c 0
 1054 1926 1165 1817 1165 1631 c 0
 1165 1569 1154 1526 1148 1488 c 2
 994 524 l 2
EndSplineSet
Substitution2: "'ss04' Style Set 4 lookup 5-1" v.alt
EndChar

StartChar: w
Encoding: 119 119 60
GlifName: w
Width: 3476
VWidth: 4730
Flags: HMW
LayerCount: 2
Fore
SplineSet
833 573 m 2
 727 257 746 14 934 14 c 0
 1286 14 1596 556 1747 1176 c 1
 1759 1176 l 1
 1603 574 1318 -40 808 -40 c 0
 390 -40 254 232 368 578 c 2
 746 1712 l 2
 754 1736 758 1766 758 1786 c 0
 758 1832 732 1864 675 1864 c 0
 410 1864 197 1566 53 1212 c 1
 40 1216 l 1
 206 1626 438 1926 821 1926 c 0
 1044 1926 1167 1822 1167 1626 c 0
 1167 1564 1154 1516 1146 1488 c 2
 833 573 l 2
1915 1884 m 1
 2386 1884 l 1
 2108 716 l 2
 2026 372 2042 -3 2376 -3 c 0
 3010 -3 3403 906 3403 1410 c 0
 3403 1522 3385 1609 3370 1642 c 1
 3362 1463 3228 1352 3036 1352 c 0
 2842 1352 2740 1503 2740 1636 c 0
 2740 1789 2868 1922 3046 1922 c 0
 3294 1922 3416 1690 3416 1410 c 0
 3416 960 3067 -40 2289 -40 c 0
 1915 -40 1491 172 1686 940 c 1
 1915 1884 l 1
EndSplineSet
EndChar

StartChar: x
Encoding: 120 120 61
GlifName: x
Width: 2309
VWidth: 4730
Flags: HMW
LayerCount: 2
Fore
SplineSet
1192 989 m 1
 1438 1391 1635 1926 1989 1926 c 0
 2259 1926 2362 1725 2362 1573 c 0
 2362 1405 2260 1286 2084 1286 c 0
 1900 1286 1818 1439 1818 1561 c 0
 1818 1691 1924 1826 2086 1826 c 0
 2208 1826 2294 1758 2334 1656 c 1
 2308 1784 2193 1912 1992 1912 c 0
 1642 1912 1454 1391 1208 985 c 1
 1192 989 l 1
1174 1078 m 1
 860 553 614 -40 260 -40 c 0
 -10 -40 -113 159 -113 311 c 0
 -113 479 -10 598 166 598 c 0
 350 598 432 445 432 323 c 0
 432 193 328 58 158 58 c 0
 22 58 -67 156 -92 256 c 1
 -60 71 78 -28 260 -28 c 0
 606 -28 860 570 1166 1082 c 1
 1174 1078 l 1
2133 446 m 1
 1998 88 1803 -40 1550 -40 c 0
 1275 -40 1149 104 1080 320 c 0
 974 669 776 1470 670 1764 c 0
 654 1810 629 1862 552 1862 c 0
 426 1862 286 1694 186 1429 c 1
 174 1430 l 1
 308 1788 477 1934 772 1934 c 0
 1047 1934 1155 1790 1224 1574 c 0
 1334 1209 1496 534 1640 136 c 0
 1656 90 1708 38 1767 38 c 0
 1871 38 2018 166 2125 447 c 1
 2133 446 l 1
EndSplineSet
EndChar

StartChar: y
Encoding: 121 121 62
GlifName: y
Width: 2439
VWidth: 4730
Flags: HMW
LayerCount: 2
Fore
SplineSet
1374 -330 m 1
 1050 222 742 1460 632 1754 c 0
 616 1800 590 1854 516 1854 c 0
 388 1854 230 1665 147 1418 c 1
 136 1422 l 1
 272 1790 468 1926 742 1926 c 0
 1000 1926 1125 1778 1190 1562 c 0
 1301 1194 1449 506 1720 104 c 1
 1610 -45 1489 -194 1374 -330 c 1
350 -1064 m 0
 35 -1064 -143 -844 -143 -588 c 0
 -143 -422 -24 -266 152 -266 c 0
 285 -266 422 -353 422 -529 c 0
 422 -685 304 -790 156 -790 c 0
 4 -790 -106 -708 -130 -600 c 1
 -127 -846 51 -1052 350 -1052 c 0
 1108 -1052 2382 965 2382 1490 c 0
 2382 1594 2353 1678 2315 1728 c 1
 2351 1481 2179 1376 2042 1376 c 0
 1848 1376 1742 1529 1742 1651 c 0
 1742 1793 1858 1926 2040 1926 c 0
 2300 1926 2394 1678 2394 1490 c 0
 2394 958 1117 -1064 350 -1064 c 0
EndSplineSet
EndChar

StartChar: z
Encoding: 122 122 63
GlifName: z
Width: 1718
VWidth: 4730
Flags: HMW
LayerCount: 2
Fore
SplineSet
96 1054 m 1
 293 1894 l 1
 515 1772 761 1734 980 1734 c 0
 1196 1734 1562 1760 1704 1886 c 1
 1712 1874 l 1
 1384 1588 1015 1322 709 1322 c 0
 529 1322 318 1391 212 1488 c 1
 108 1054 l 1
 96 1054 l 1
-122 -19 m 1
 -155 -32 l 1
 1696 1875 l 1
 1712 1874 l 1
 -122 -19 l 1
1654 690 m 1
 1626 580 1534 486 1394 486 c 0
 1270 486 1146 589 1146 731 c 0
 1146 895 1276 980 1398 980 c 0
 1540 980 1666 890 1666 702 c 0
 1666 478 1420 -40 1022 -40 c 0
 752 -40 636 160 366 160 c 0
 170 160 -12 92 -144 -40 c 1
 -152 -32 l 1
 124 214 470 472 756 472 c 0
 1008 472 1065 264 1340 264 c 0
 1544 264 1644 524 1654 690 c 1
EndSplineSet
EndChar

StartChar: comma
Encoding: 44 44 65
GlifName: comma
Width: 1003
Flags: HMW
LayerCount: 2
Fore
SplineSet
71 252 m 0
 71 418 222 565 408 565 c 0
 598 565 746 438 746 180 c 0
 746 -258 283 -638 -147 -638 c 1
 -147 -626 l 1
 253 -626 762 -255 730 231 c 1
 714 87 576 -40 382 -40 c 0
 175 -40 71 96 71 252 c 0
EndSplineSet
EndChar

StartChar: exclam
Encoding: 33 33 67
GlifName: exclam
Width: 1429
Flags: HMW
LayerCount: 2
Fore
SplineSet
1467 2792 m 0
 1405 2336 947 1578 778 954 c 1
 770 954 l 1
 892 1568 850 2122 850 2638 c 0
 850 2898 970 3104 1190 3104 c 0
 1364 3104 1491 2970 1467 2792 c 0
300 262 m 0
 300 432 435 567 605 567 c 0
 775 567 910 432 910 262 c 0
 910 92 775 -40 605 -40 c 0
 435 -40 300 92 300 262 c 0
EndSplineSet
EndChar

StartChar: quotesingle
Encoding: 39 39 70
GlifName: quotesingle
Width: 935
Flags: HMW
LayerCount: 2
Fore
SplineSet
1106 2771 m 0
 1028 2463 772 2336 650 1926 c 1
 642 1926 l 1
 745 2304 619 2436 573 2744 c 24
 569 2772 568 2799 568 2823 c 0
 568 3003 701 3112 860 3112 c 0
 1009 3112 1118 3001 1118 2863 c 0
 1118 2833 1114 2799 1106 2771 c 0
EndSplineSet
EndChar

StartChar: question
Encoding: 63 63 75
GlifName: question
Width: 2323
Flags: HMW
LayerCount: 2
Fore
SplineSet
1188 1424 m 1
 1082 928 l 1
 1074 928 l 1
 1183 1430 l 1
 1663 1556 1983 2055 1983 2539 c 0
 1983 2823 1905 3096 1582 3096 c 0
 1098 3096 723 2752 701 2470 c 1
 725 2553 826 2642 960 2642 c 0
 1098 2642 1236 2540 1236 2376 c 0
 1236 2192 1083 2094 950 2094 c 0
 787 2094 676 2212 676 2400 c 0
 676 2736 1082 3112 1622 3112 c 0
 2076 3112 2510 2918 2510 2426 c 0
 2510 1822 1822 1456 1188 1424 c 1
EndSplineSet
Refer: 1 46 N 1 0 0 1 610 0 2
EndChar

StartChar: parenleft
Encoding: 40 40 76
GlifName: parenleft
Width: 1505
Flags: HMW
LayerCount: 2
Fore
SplineSet
1136 -685 m 1
 1132 -696 l 1
 670 -492 339 50 339 758 c 0
 339 1958 1212 2948 2002 3276 c 1
 2006 3265 l 1
 1376 2896 804 1474 804 502 c 0
 804 -131 892 -440 1136 -685 c 1
EndSplineSet
EndChar

StartChar: asterisk
Encoding: 42 42 78
GlifName: asterisk
Width: 2600
VWidth: 4730
Flags: HMW
LayerCount: 2
Fore
SplineSet
1079 2716 m 0
 1328 2523 1171 2274 1551 2058 c 1
 1546 2052 l 1
 1156 2278 1056 2109 774 2232 c 0
 594 2312 521 2500 608 2651 c 0
 702 2815 915 2826 1079 2716 c 0
610 1848 m 0
 900 1949 1156 1832 1546 2058 c 1
 1550 2052 l 1
 1160 1826 1088 1601 842 1404 c 0
 684 1288 489 1269 396 1430 c 0
 304 1584 413 1782 610 1848 c 0
1134 1238 m 0
 1223 1548 1484 1670 1546 2058 c 1
 1554 2058 l 1
 1472 1588 1658 1535 1658 1227 c 0
 1658 1025 1531 872 1357 872 c 0
 1193 872 1068 1015 1134 1238 c 0
2026 1409 m 0
 1777 1602 1926 1836 1546 2052 c 1
 1551 2058 l 1
 1941 1832 2040 2002 2325 1885 c 0
 2505 1805 2578 1617 2491 1466 c 0
 2397 1306 2184 1301 2026 1409 c 0
2490 2269 m 0
 2200 2168 1940 2278 1550 2052 c 1
 1546 2058 l 1
 1936 2284 2012 2515 2258 2712 c 0
 2416 2828 2611 2848 2704 2687 c 0
 2796 2533 2687 2335 2490 2269 c 0
1966 2879 m 0
 1887 2569 1616 2446 1554 2058 c 1
 1546 2058 l 1
 1628 2528 1441 2582 1441 2890 c 0
 1441 3092 1568 3244 1742 3244 c 0
 1906 3244 2023 3104 1966 2879 c 0
EndSplineSet
EndChar

StartChar: at
Encoding: 64 64 79
GlifName: at
Width: 4136
VWidth: 4730
Flags: HMW
LayerCount: 2
Fore
SplineSet
2447 1440 m 0
 2447 834 2136 286 1696 286 c 0
 1362 286 1082 516 1082 942 c 0
 1082 1556 1541 2166 2030 2166 c 0
 2382 2166 2447 1776 2447 1440 c 0
2432 1418 m 0
 2432 1590 2423 2080 2139 2080 c 0
 1877 2080 1617 1434 1617 926 c 0
 1617 652 1680 374 1842 374 c 0
 2144 374 2432 882 2432 1418 c 0
2344 860 m 2
 2640 2130 l 1
 3131 2130 l 1
 2833 846 l 2
 2813 756 2655 326 2940 326 c 0
 3488 326 3900 962 3900 1642 c 0
 3900 2384 3428 3224 2396 3224 c 0
 1209 3224 238 2142 238 864 c 0
 238 -414 974 -864 1716 -864 c 0
 2380 -864 2864 -652 3204 -254 c 1
 3216 -262 l 1
 2872 -664 2384 -876 1716 -876 c 0
 966 -876 226 -426 226 864 c 0
 226 2146 1196 3236 2396 3236 c 0
 3432 3236 3912 2392 3912 1642 c 0
 3912 976 3531 278 2800 278 c 0
 2374 278 2286 606 2344 860 c 2
EndSplineSet
EndChar

StartChar: dollar
Encoding: 36 36 80
GlifName: dollar
Width: 2364
Flags: HMW
LayerCount: 2
Fore
SplineSet
1506 3400 m 1
 1518 3400 l 1
 658 -328 l 1
 646 -328 l 1
 1506 3400 l 1
1860 3400 m 1
 1874 3400 l 1
 1014 -328 l 1
 1000 -328 l 1
 1860 3400 l 1
922 2540 m 0
 922 1783 2212 2028 2212 932 c 0
 2212 307 1642 -62 1064 -62 c 0
 506 -62 122 303 122 630 c 0
 122 828 240 992 440 992 c 0
 582 992 734 886 734 696 c 0
 734 502 584 394 424 394 c 0
 270 394 165 503 141 586 c 1
 173 254 567 -50 1064 -50 c 0
 1498 -50 1760 301 1760 645 c 0
 1760 1484 502 1136 502 2170 c 0
 502 2713 1048 3112 1554 3112 c 0
 1996 3112 2406 2815 2406 2473 c 0
 2406 2285 2292 2120 2092 2120 c 0
 1950 2120 1796 2220 1796 2418 c 0
 1796 2602 1956 2709 2106 2709 c 0
 2263 2709 2353 2611 2383 2522 c 1
 2357 2820 1996 3091 1586 3091 c 0
 1152 3091 922 2833 922 2540 c 0
EndSplineSet
EndChar

StartChar: numbersign
Encoding: 35 35 81
GlifName: numbersign
Width: 2580
Flags: HMW
LayerCount: 2
Fore
SplineSet
270 1028 m 1
 2482 1028 l 1
 2482 1016 l 1
 270 1016 l 1
 270 1028 l 1
476 2118 m 1
 2686 2118 l 1
 2686 2106 l 1
 476 2106 l 1
 476 2118 l 1
2252 3088 m 1
 2260 3092 l 1
 1544 -20 l 1
 1536 -24 l 1
 2252 3088 l 1
1434 3092 m 1
 1442 3092 l 1
 724 -20 l 1
 716 -20 l 1
 1434 3092 l 1
EndSplineSet
EndChar

StartChar: slash
Encoding: 47 47 82
GlifName: slash
Width: 2128
Flags: HMW
LayerCount: 2
Fore
SplineSet
2524 3194 m 1
 2540 3194 l 1
 -106 -614 l 1
 -122 -614 l 1
 2524 3194 l 1
EndSplineSet
EndChar

StartChar: percent
Encoding: 37 37 83
GlifName: percent
Width: 4096
Flags: HMW
LayerCount: 2
Fore
SplineSet
2990 -40 m 0
 2590 -40 2324 152 2324 574 c 0
 2324 1242 2794 1762 3358 1762 c 0
 3758 1762 4025 1568 4025 1146 c 0
 4025 478 3554 -40 2990 -40 c 0
3368 1750 m 0
 3095 1750 2806 895 2806 406 c 0
 2806 163 2860 -28 2980 -28 c 0
 3253 -28 3538 779 3538 1268 c 0
 3538 1511 3488 1750 3368 1750 c 0
3654 3072 m 1
 3666 3072 l 1
 802 0 l 1
 790 0 l 1
 3654 3072 l 1
1126 1310 m 0
 726 1310 461 1504 461 1926 c 0
 461 2594 932 3112 1496 3112 c 0
 1896 3112 2161 2920 2161 2498 c 0
 2161 1830 1690 1310 1126 1310 c 0
1506 3100 m 0
 1233 3100 942 2247 942 1758 c 0
 942 1515 996 1324 1116 1324 c 0
 1389 1324 1674 2183 1674 2672 c 0
 1674 2915 1626 3100 1506 3100 c 0
EndSplineSet
EndChar

StartChar: hyphen
Encoding: 45 45 85
GlifName: hyphen
Width: 1474
Flags: HMW
LayerCount: 2
Fore
SplineSet
340 1130 m 1
 1324 1130 l 1
 1324 1122 l 1
 340 1122 l 1
 340 1130 l 1
EndSplineSet
EndChar

StartChar: plus
Encoding: 43 43 87
GlifName: plus
Width: 2170
Flags: HMW
LayerCount: 2
Fore
SplineSet
1020 450 m 1
 1410 2130 l 1
 1418 2130 l 1
 1028 450 l 1
 1020 450 l 1
380 1298 m 1
 2060 1298 l 1
 2060 1290 l 1
 380 1290 l 1
 380 1298 l 1
EndSplineSet
EndChar

StartChar: less
Encoding: 60 60 89
GlifName: less
Width: 2292
Flags: HMW
LayerCount: 2
Fore
SplineSet
450 1586 m 1
 450 1594 l 1
 2416 2458 l 1
 2416 2446 l 1
 450 1586 l 1
450 1582 m 1
 450 1590 l 1
 2048 730 l 1
 2048 716 l 1
 450 1582 l 1
EndSplineSet
EndChar

StartChar: backslash
Encoding: 92 92 91
GlifName: backslash
Width: 2128
Flags: HMW
LayerCount: 2
Fore
SplineSet
750 3194 m 1
 1680 -614 l 1
 1668 -614 l 1
 738 3194 l 1
 750 3194 l 1
EndSplineSet
EndChar

StartChar: bracketleft
Encoding: 91 91 92
GlifName: bracketleft
Width: 1443
Flags: HMW
LayerCount: 2
Fore
SplineSet
820 3194 m 1
 1874 3194 l 1
 1874 3182 l 1
 1286 3182 l 1
 434 -602 l 1
 1014 -602 l 1
 1014 -614 l 1
 -40 -614 l 1
 820 3194 l 1
EndSplineSet
EndChar

StartChar: braceleft
Encoding: 123 123 93
GlifName: braceleft
Width: 1216
VWidth: 4730
Flags: HMW
LayerCount: 2
Fore
SplineSet
1666 3194 m 1
 1666 3164 l 1
 1320 3164 1112 2875 1112 2528 c 0
 1112 2298 1152 2176 1152 1868 c 0
 1152 1498 682 1325 348 1285 c 1
 348 1306 l 1
 470 1346 706 1460 706 1668 c 0
 706 1896 622 1982 622 2338 c 0
 622 2846 990 3194 1666 3194 c 1
806 -614 m 1
 253 -614 20 -487 20 -133 c 0
 20 357 552 746 552 1004 c 0
 552 1172 470 1237 348 1277 c 1
 348 1298 l 1
 682 1258 888 1170 888 882 c 0
 888 472 504 124 504 -188 c 0
 504 -396 552 -584 806 -584 c 1
 806 -614 l 1
EndSplineSet
EndChar

StartChar: bar
Encoding: 124 124 96
GlifName: bar
Width: 942
VWidth: 4730
Flags: HMW
LayerCount: 2
Fore
SplineSet
1044 3194 m 1
 1052 3194 l 1
 70 -1024 l 1
 62 -1024 l 1
 1044 3194 l 1
EndSplineSet
EndChar

StartChar: cent
Encoding: 162 162 98
GlifName: cent
Width: 1961
VWidth: 4730
Flags: HMW
LayerCount: 2
Fore
SplineSet
1394 2274 m 1
 698 -348 l 1
 686 -348 l 1
 1382 2274 l 1
 1394 2274 l 1
EndSplineSet
Refer: 40 99 N 1 0 0 1 0 0 2
EndChar

StartChar: sterling
Encoding: 163 163 99
GlifName: sterling
Width: 2563
VWidth: 4730
Flags: HMW
LayerCount: 2
Fore
SplineSet
2526 766 m 1
 2444 162 2073 -122 1647 -122 c 0
 1085 -122 844 122 586 122 c 0
 408 122 220 40 148 -82 c 1
 136 -82 l 1
 268 262 592 520 982 520 c 0
 1392 520 1452 381 1832 381 c 0
 2159 381 2432 430 2514 766 c 1
 2526 766 l 1
2212 1658 m 1
 2212 1646 l 1
 266 1646 l 1
 266 1658 l 1
 2212 1658 l 1
771 2098 m 0
 771 2712 1344 3112 2086 3112 c 0
 2657 3112 2922 2778 2922 2422 c 0
 2922 2224 2777 2106 2624 2106 c 0
 2481 2106 2328 2202 2328 2396 c 0
 2328 2570 2475 2672 2624 2672 c 0
 2778 2672 2890 2556 2910 2454 c 1
 2903 2781 2631 3089 2158 3089 c 0
 1629 3089 1368 2587 1368 2283 c 0
 1368 2011 1454 1854 1454 1516 c 0
 1454 718 100 614 144 -82 c 1
 132 -82 l 1
 64 488 897 798 897 1274 c 0
 897 1506 771 1750 771 2098 c 0
EndSplineSet
EndChar

StartChar: section
Encoding: 167 167 101
GlifName: section
Width: 1940
VWidth: 4730
Flags: HMW
LayerCount: 2
Fore
SplineSet
875 2616 m 0
 875 2172 1906 2274 1906 1658 c 0
 1906 1332 1552 1192 1334 1050 c 1
 1326 1050 l 1
 1466 1140 1574 1262 1574 1426 c 0
 1574 1869 581 1710 581 2414 c 0
 581 2840 1015 3112 1425 3112 c 0
 1827 3112 2070 2844 2070 2574 c 0
 2070 2324 1954 2212 1790 2212 c 0
 1648 2212 1538 2304 1538 2472 c 0
 1538 2614 1662 2718 1802 2718 c 0
 1946 2718 2034 2624 2056 2580 c 1
 2049 2824 1850 3097 1425 3097 c 0
 1125 3097 875 2880 875 2616 c 0
1679 694 m 0
 1679 268 1240 -40 748 -40 c 0
 388 -40 15 135 15 529 c 0
 15 707 146 875 330 875 c 0
 472 875 583 788 583 630 c 0
 583 478 458 370 288 370 c 0
 152 370 54 442 28 538 c 1
 29 142 383 -25 748 -25 c 0
 1170 -25 1358 274 1358 465 c 0
 1358 929 282 808 282 1394 c 0
 282 1688 616 1942 806 2038 c 1
 818 2038 l 1
 750 1988 670 1865 670 1698 c 0
 670 1194 1679 1399 1679 694 c 0
EndSplineSet
EndChar

StartChar: brokenbar
Encoding: 166 166 102
GlifName: brokenbar
Width: 900
VWidth: 4730
Flags: HMW
LayerCount: 2
Fore
SplineSet
439 680 m 1
 447 680 l 1
 55 -1024 l 1
 47 -1024 l 1
 439 680 l 1
1021 3194 m 1
 1029 3194 l 1
 677 1676 l 1
 669 1676 l 1
 1021 3194 l 1
EndSplineSet
EndChar

StartChar: asciitilde
Encoding: 126 126 104
GlifName: asciitilde
Width: 2818
VWidth: 4730
Flags: HMW
LayerCount: 2
Fore
SplineSet
1108 1760 m 0
 860 1760 721 1668 644 1404 c 1
 614 1404 l 1
 706 1876 932 2119 1276 2119 c 0
 1726 2119 1766 1734 2160 1734 c 0
 2450 1734 2588 1824 2665 2088 c 1
 2696 2088 l 1
 2604 1616 2378 1374 2034 1374 c 0
 1544 1374 1468 1760 1108 1760 c 0
EndSplineSet
EndChar

StartChar: copyright
Encoding: 169 169 105
GlifName: copyright
Width: 3562
Flags: HMW
LayerCount: 2
Fore
SplineSet
348 1250 m 0
 348 2204 1258 3112 2212 3112 c 0
 3002 3112 3584 2612 3584 1822 c 0
 3584 868 2674 -40 1720 -40 c 0
 930 -40 348 460 348 1250 c 0
360 1250 m 0
 360 464 934 -28 1720 -28 c 0
 2666 -28 3572 872 3572 1822 c 0
 3572 2608 2998 3100 2212 3100 c 0
 1266 3100 360 2200 360 1250 c 0
EndSplineSet
Refer: 14 67 N 0.6 0 0 0.6 930 614 2
EndChar

StartChar: registered
Encoding: 174 174 106
GlifName: registered
Width: 3562
Flags: HMW
LayerCount: 2
Fore
SplineSet
348 1250 m 0
 348 2204 1258 3112 2212 3112 c 0
 3002 3112 3584 2612 3584 1822 c 0
 3584 868 2674 -40 1720 -40 c 0
 930 -40 348 460 348 1250 c 0
360 1250 m 0
 360 464 934 -28 1720 -28 c 0
 2666 -28 3572 872 3572 1822 c 0
 3572 2608 2998 3100 2212 3100 c 0
 1266 3100 360 2200 360 1250 c 0
EndSplineSet
Refer: 29 82 S 0.6 0 0 0.6 1026 606 2
EndChar

StartChar: logicalnot
Encoding: 172 172 107
GlifName: logicalnot
Width: 1990
Flags: HMW
LayerCount: 2
Fore
SplineSet
2098 2506 m 1
 614 2506 l 1
 614 2520 l 1
 2114 2520 l 1
 1930 1692 l 1
 1916 1692 l 1
 2098 2506 l 1
EndSplineSet
EndChar

StartChar: guillemotleft
Encoding: 171 171 108
GlifName: guillemotleft
Width: 2846
Flags: HMW
LayerCount: 2
Fore
SplineSet
2072 1590 m 1
 2606 598 l 1
 2600 594 l 1
 1454 1536 l 1
 1454 1638 l 1
 3052 2580 l 1
 3056 2576 l 1
 2072 1590 l 1
926 1590 m 1
 1458 598 l 1
 1454 594 l 1
 308 1536 l 1
 308 1638 l 1
 1904 2580 l 1
 1908 2576 l 1
 926 1590 l 1
EndSplineSet
EndChar

StartChar: mu
Encoding: 181 181 111
GlifName: mu
Width: 2585
VWidth: 4730
Flags: HMW
LayerCount: 2
Fore
SplineSet
46 -372 m 2
 -44 -762 26 -1048 390 -1052 c 1
 508 -1044 l 1
 398 -1028 261 -962 261 -778 c 0
 261 -626 384 -516 520 -516 c 0
 656 -516 786 -622 786 -778 c 0
 786 -938 690 -1064 390 -1064 c 0
 22 -1064 -58 -762 32 -372 c 2
 422 1314 l 1
 434 1314 l 1
 46 -372 l 2
EndSplineSet
Refer: 58 117 N 1 0 0 1 0 0 2
EndChar

StartChar: asciicircum
Encoding: 94 94 113
GlifName: asciicircum
Width: 2232
Flags: HMW
LayerCount: 2
Fore
SplineSet
1672 2962 m 1
 874 2567 l 1
 860 2580 l 1
 1556 3154 l 1
 1822 3154 l 1
 2274 2580 l 1
 2260 2567 l 1
 1672 2962 l 1
EndSplineSet
EndChar

StartChar: degree
Encoding: 176 176 115
GlifName: degree
Width: 1310
Flags: HMW
LayerCount: 2
Fore
SplineSet
794 2786 m 0
 794 3056 1016 3276 1286 3276 c 0
 1556 3276 1778 3056 1778 2786 c 0
 1778 2516 1556 2294 1286 2294 c 0
 1016 2294 794 2516 794 2786 c 0
884 2786 m 0
 884 2556 1056 2384 1286 2384 c 0
 1516 2384 1688 2556 1688 2786 c 0
 1688 3016 1516 3186 1286 3186 c 0
 1056 3186 884 3016 884 2786 c 0
EndSplineSet
EndChar

StartChar: onequarter
Encoding: 188 188 119
GlifName: onequarter
Width: 2624
Flags: HMW
LayerCount: 2
Fore
SplineSet
2592 2662 m 1
 2606 2662 l 1
 -58 -410 l 1
 -70 -410 l 1
 2592 2662 l 1
EndSplineSet
Refer: 6 52 N 0.6 0 0 0.6 984 -422 2
Refer: 3 49 N 0.6 0 0 0.6 418 1458 2
EndChar

StartChar: onehalf
Encoding: 189 189 120
GlifName: onehalf
Width: 2744
Flags: HMW
LayerCount: 2
Fore
SplineSet
2592 2662 m 1
 2606 2662 l 1
 -58 -410 l 1
 -70 -410 l 1
 2592 2662 l 1
EndSplineSet
Refer: 4 50 N 0.6 0 0 0.6 1396 -414 2
Refer: 3 49 N 0.6 0 0 0.6 418 1458 2
EndChar

StartChar: threequarters
Encoding: 190 190 121
GlifName: threequarters
Width: 2870
Flags: HMW
LayerCount: 2
Fore
SplineSet
2838 2662 m 1
 2850 2662 l 1
 188 -410 l 1
 176 -410 l 1
 2838 2662 l 1
EndSplineSet
Refer: 5 51 N 0.6 0 0 0.6 348 1450 2
Refer: 6 52 N 0.6 0 0 0.6 1228 -422 2
EndChar

StartChar: grave
Encoding: 96 96 123
GlifName: grave
Width: 1636
Flags: HMW
LayerCount: 2
Fore
SplineSet
980 2912 m 2
 872 2900 774 2984 774 3092 c 0
 774 3200 884 3317 1020 3269 c 2
 1958 2964 l 1
 1954 2956 l 1
 980 2912 l 2
EndSplineSet
EndChar

StartChar: acute
Encoding: 180 180 124
GlifName: acute
Width: 1636
Flags: HMW
LayerCount: 2
Fore
SplineSet
1915 2902 m 2
 941 2946 l 1
 937 2954 l 1
 1874 3258 l 2
 2010 3306 2119 3190 2119 3082 c 0
 2119 2974 2023 2890 1915 2902 c 2
EndSplineSet
EndChar

StartChar: multiply
Encoding: 215 215 127
GlifName: multiply
Width: 2170
Flags: HMW
LayerCount: 2
Fore
SplineSet
1676 692 m 1
 754 1880 l 1
 762 1888 l 1
 1684 700 l 1
 1676 692 l 1
484 704 m 1
 1938 1892 l 1
 1946 1884 l 1
 492 696 l 1
 484 704 l 1
EndSplineSet
EndChar

StartChar: cedilla
Encoding: 184 184 128
GlifName: cedilla
Width: 2252
Flags: HMW
LayerCount: 2
Fore
SplineSet
970 -324 m 1
 1462 168 l 1
 1474 168 l 1
 984 -324 l 1
 970 -324 l 1
970 -324 m 1
 1141 -160 l 1
 1483 -160 1737 -236 1737 -450 c 0
 1737 -716 1360 -902 916 -902 c 1
 916 -888 l 1
 1158 -888 1347 -754 1347 -532 c 0
 1347 -366 1216 -324 970 -324 c 1
EndSplineSet
EndChar

StartChar: divide
Encoding: 247 247 131
GlifName: divide
Width: 2343
Flags: HMW
LayerCount: 2
Fore
SplineSet
386 1622 m 1
 2374 1622 l 1
 2374 1614 l 1
 386 1614 l 1
 386 1622 l 1
900 840 m 0
 900 1010 1038 1147 1208 1147 c 0
 1378 1147 1515 1010 1515 840 c 0
 1515 670 1378 534 1208 534 c 0
 1038 534 900 670 900 840 c 0
1228 2344 m 0
 1228 2514 1366 2652 1536 2652 c 0
 1706 2652 1842 2514 1842 2344 c 0
 1842 2174 1706 2039 1536 2039 c 0
 1366 2039 1228 2174 1228 2344 c 0
EndSplineSet
EndChar

StartChar: ring
Encoding: 730 730 271
GlifName: ring
Width: 1310
VWidth: 0
Flags: HMW
LayerCount: 2
Fore
SplineSet
752 2786 m 0
 752 2994 918 3154 1146 3154 c 0
 1374 3154 1542 2994 1542 2786 c 0
 1542 2578 1374 2416 1146 2416 c 0
 918 2416 752 2578 752 2786 c 0
946 2668 m 0
 946 2530 984 2430 1116 2430 c 0
 1258 2430 1348 2742 1348 2904 c 0
 1348 3042 1310 3141 1178 3141 c 0
 1036 3141 946 2830 946 2668 c 0
EndSplineSet
EndChar

StartChar: tilde
Encoding: 732 732 272
GlifName: tilde
Width: 1834
VWidth: 0
Flags: HMW
LayerCount: 2
Fore
SplineSet
934 2710 m 0
 778 2710 688 2650 606 2458 c 1
 594 2458 l 1
 676 2806 881 3008 1112 3008 c 0
 1398 3008 1572 2685 1802 2685 c 0
 1958 2685 2048 2744 2130 2936 c 1
 2142 2936 l 1
 2060 2546 1897 2386 1666 2386 c 0
 1350 2386 1192 2710 934 2710 c 0
EndSplineSet
EndChar

StartChar: AE
Encoding: 198 198 274
GlifName: A_E_
Width: 4157
Flags: HMW
LayerCount: 2
Fore
SplineSet
2854 3072 m 1
 4543 3072 l 1
 4346 2232 l 1
 4334 2232 l 1
 4406 2670 4234 3060 3754 3060 c 2
 2854 3060 l 1
 2854 3072 l 1
3033 1586 m 2
 2753 1586 l 1
 2753 1594 l 1
 3033 1594 l 2
 3267 1594 3534 1776 3626 2050 c 1
 3638 2050 l 1
 3422 1108 l 1
 3410 1108 l 1
 3441 1382 3267 1586 3033 1586 c 2
3872 0 m 1
 1638 0 l 1
 1638 12 l 1
 3042 12 l 2
 3604 12 3923 402 4072 922 c 1
 4084 922 l 1
 3872 0 l 1
2700 3072 m 1
 3211 3072 l 1
 2499 0 l 1
 1986 0 l 1
 2700 3072 l 1
1086 1008 m 1
 2274 1008 l 1
 2274 1000 l 1
 1086 1000 l 1
 1086 1008 l 1
2686 3072 m 1
 2704 3072 l 1
 308 0 l 1
 290 0 l 1
 2686 3072 l 1
-102 12 m 1
 798 12 l 1
 798 0 l 1
 -102 0 l 1
 -102 12 l 1
EndSplineSet
EndChar

StartChar: Eth
Encoding: 208 208 275
GlifName: E_th
Width: 2974
Flags: HMW
LayerCount: 2
Fore
SplineSet
351 1540 m 1
 1501 1540 l 1
 1501 1532 l 1
 351 1532 l 1
 351 1540 l 1
975 3072 m 1
 1486 3072 l 1
 790 0 l 1
 278 0 l 1
 975 3072 l 1
1200 0 m 2
 -91 0 l 1
 -91 12 l 1
 1159 12 l 2
 2005 12 2460 1405 2460 2222 c 0
 2460 2598 2322 3060 1844 3060 c 2
 565 3060 l 1
 565 3072 l 1
 1876 3072 l 2
 2544 3072 3032 2706 3032 2008 c 0
 3032 920 2226 0 1200 0 c 2
EndSplineSet
EndChar

StartChar: ae
Encoding: 230 230 277
GlifName: ae
Width: 3277
VWidth: 4730
Flags: HMW
LayerCount: 2
Fore
SplineSet
1122 1032 m 2
 1446 1032 l 1
 1446 1024 l 1
 1184 1024 l 2
 862 1024 587 716 587 340 c 0
 587 116 676 -24 800 -24 c 0
 1024 -24 1232 340 1322 742 c 2
 1438 1250 l 2
 1496 1512 1498 1901 1180 1901 c 0
 982 1901 677 1828 557 1658 c 1
 811 1796 1020 1670 1020 1508 c 0
 1020 1334 870 1233 727 1233 c 0
 564 1233 462 1322 462 1480 c 0
 462 1734 828 1916 1220 1916 c 0
 1752 1916 1882 1633 1816 1250 c 1
 1651 742 l 1
 1557 234 1190 -40 716 -40 c 0
 372 -40 74 76 74 380 c 0
 74 766 458 1032 1122 1032 c 2
2788 1544 m 0
 2788 1726 2748 1911 2616 1911 c 0
 2303 1911 1890 1226 1890 554 c 0
 1890 260 1986 1 2218 1 c 0
 2558 1 2887 271 3056 586 c 1
 3068 586 l 1
 2898 270 2559 -40 2074 -40 c 0
 1742 -40 1454 164 1454 656 c 1
 1536 634 l 1
 1544 1412 2073 1926 2636 1926 c 0
 2972 1926 3262 1818 3262 1514 c 0
 3262 916 2226 910 1854 910 c 1
 1854 920 l 1
 2218 920 2788 996 2788 1544 c 0
EndSplineSet
EndChar

StartChar: perthousand
Encoding: 8240 8240 285
GlifName: perthousand
Width: 6071
Flags: HMW
LayerCount: 2
Fore
SplineSet
4967 -40 m 0
 4567 -40 4300 152 4300 574 c 0
 4300 1242 4771 1762 5335 1762 c 0
 5735 1762 6000 1568 6000 1146 c 0
 6000 478 5531 -40 4967 -40 c 0
5346 1750 m 0
 5073 1750 4782 895 4782 406 c 0
 4782 163 4837 -28 4957 -28 c 0
 5230 -28 5514 779 5514 1268 c 0
 5514 1511 5466 1750 5346 1750 c 0
2990 -40 m 0
 2590 -40 2324 152 2324 574 c 0
 2324 1242 2794 1762 3358 1762 c 0
 3758 1762 4025 1568 4025 1146 c 0
 4025 478 3554 -40 2990 -40 c 0
3368 1750 m 0
 3095 1750 2806 895 2806 406 c 0
 2806 163 2860 -28 2980 -28 c 0
 3253 -28 3538 779 3538 1268 c 0
 3538 1511 3488 1750 3368 1750 c 0
3654 3072 m 1
 3666 3072 l 1
 802 0 l 1
 790 0 l 1
 3654 3072 l 1
1126 1310 m 0
 726 1310 461 1504 461 1926 c 0
 461 2594 932 3112 1496 3112 c 0
 1896 3112 2161 2920 2161 2498 c 0
 2161 1830 1690 1310 1126 1310 c 0
1506 3100 m 0
 1233 3100 942 2247 942 1758 c 0
 942 1515 996 1324 1116 1324 c 0
 1389 1324 1674 2183 1674 2672 c 0
 1674 2915 1626 3100 1506 3100 c 0
EndSplineSet
EndChar

StartChar: uni2031
Encoding: 8241 8241 286
GlifName: uni2031
Width: 8078
Flags: HMW
LayerCount: 2
Fore
SplineSet
6974 -40 m 0
 6574 -40 6307 152 6307 574 c 0
 6307 1242 6778 1762 7342 1762 c 0
 7742 1762 8008 1568 8008 1146 c 0
 8008 478 7538 -40 6974 -40 c 0
7352 1750 m 0
 7079 1750 6789 895 6789 406 c 0
 6789 163 6844 -28 6964 -28 c 0
 7237 -28 7520 779 7520 1268 c 0
 7520 1511 7472 1750 7352 1750 c 0
4967 -40 m 0
 4567 -40 4300 152 4300 574 c 0
 4300 1242 4771 1762 5335 1762 c 0
 5735 1762 6000 1568 6000 1146 c 0
 6000 478 5531 -40 4967 -40 c 0
5346 1750 m 0
 5073 1750 4782 895 4782 406 c 0
 4782 163 4837 -28 4957 -28 c 0
 5230 -28 5514 779 5514 1268 c 0
 5514 1511 5466 1750 5346 1750 c 0
2990 -40 m 0
 2590 -40 2324 152 2324 574 c 0
 2324 1242 2794 1762 3358 1762 c 0
 3758 1762 4025 1568 4025 1146 c 0
 4025 478 3554 -40 2990 -40 c 0
3368 1750 m 0
 3095 1750 2806 895 2806 406 c 0
 2806 163 2860 -28 2980 -28 c 0
 3253 -28 3538 779 3538 1268 c 0
 3538 1511 3488 1750 3368 1750 c 0
3654 3072 m 1
 3666 3072 l 1
 802 0 l 1
 790 0 l 1
 3654 3072 l 1
1126 1310 m 0
 726 1310 461 1504 461 1926 c 0
 461 2594 932 3112 1496 3112 c 0
 1896 3112 2161 2920 2161 2498 c 0
 2161 1830 1690 1310 1126 1310 c 0
1506 3100 m 0
 1233 3100 942 2247 942 1758 c 0
 942 1515 996 1324 1116 1324 c 0
 1389 1324 1674 2183 1674 2672 c 0
 1674 2915 1626 3100 1506 3100 c 0
EndSplineSet
EndChar

StartChar: uniFB00
Encoding: 64256 64256 290
GlifName: uniF_B_00
Width: 2745
VWidth: 4730
Flags: HMW
LayerCount: 2
Fore
SplineSet
247 1884 m 1
 2858 1884 l 1
 2858 1872 l 1
 247 1872 l 1
 247 1884 l 1
3372 2766 m 1
 3344 2913 3176 3098 2897 3098 c 0
 2611 3098 2415 2712 2326 2212 c 2
 1962 156 l 2
 1856 -430 1458 -860 894 -860 c 0
 502 -860 335 -616 335 -424 c 0
 335 -236 456 -128 609 -128 c 0
 742 -128 890 -208 890 -392 c 0
 890 -576 751 -665 602 -665 c 0
 496 -665 400 -599 368 -514 c 1
 396 -661 560 -846 870 -846 c 0
 1188 -846 1383 -460 1472 40 c 2
 1836 2098 l 2
 1942 2684 2342 3112 2874 3112 c 0
 3236 3112 3402 2869 3402 2677 c 0
 3402 2489 3282 2382 3129 2382 c 0
 2996 2382 2847 2460 2847 2644 c 0
 2847 2828 2986 2918 3135 2918 c 0
 3241 2918 3340 2849 3372 2766 c 1
2182 2562 m 1
 2154 2709 1986 2894 1676 2894 c 0
 1358 2894 1164 2510 1075 2010 c 2
 710 -50 l 2
 604 -636 205 -1064 -327 -1064 c 0
 -689 -1064 -855 -821 -855 -629 c 0
 -855 -441 -734 -334 -581 -334 c 0
 -448 -334 -300 -412 -300 -596 c 0
 -300 -780 -439 -870 -588 -870 c 0
 -694 -870 -790 -803 -822 -718 c 1
 -794 -865 -629 -1050 -350 -1050 c 0
 -64 -1050 131 -664 220 -164 c 2
 585 1892 l 2
 691 2478 1088 2908 1652 2908 c 0
 2044 2908 2212 2664 2212 2472 c 0
 2212 2284 2092 2176 1939 2176 c 0
 1806 2176 1657 2256 1657 2440 c 0
 1657 2624 1796 2713 1945 2713 c 0
 2051 2713 2150 2645 2182 2562 c 1
EndSplineSet
Ligature2: "'liga' Standard Ligatures lookup 0-1" f f
LCarets2: 1 0
EndChar

StartChar: uniFB01
Encoding: 64257 64257 291
GlifName: uniF_B_01
Width: 2623
VWidth: 4730
Flags: HMW
LayerCount: 2
Fore
SplineSet
2544 668 m 1
 2388 258 2124 -40 1762 -40 c 0
 1539 -40 1426 54 1426 278 c 0
 1426 298 1429 344 1434 368 c 2
 1784 1872 l 1
 252 1872 l 1
 252 1884 l 1
 2258 1884 l 1
 1849 172 l 2
 1845 148 1841 118 1841 98 c 0
 1841 52 1861 16 1915 16 c 0
 2147 16 2391 286 2534 672 c 1
 2544 668 l 1
2339 2766 m 1
 2305 2924 2130 3098 1790 3098 c 0
 1422 3098 1210 2721 1119 2212 c 2
 710 -50 l 2
 604 -636 205 -1064 -327 -1064 c 0
 -689 -1064 -855 -821 -855 -629 c 0
 -855 -441 -734 -334 -581 -334 c 0
 -448 -334 -300 -412 -300 -596 c 0
 -300 -780 -439 -870 -588 -870 c 0
 -694 -870 -790 -803 -822 -718 c 1
 -794 -865 -629 -1050 -350 -1050 c 0
 -64 -1050 131 -664 220 -164 c 2
 629 2098 l 2
 735 2684 1153 3112 1767 3112 c 0
 2199 3112 2368 2879 2368 2677 c 0
 2368 2489 2247 2382 2094 2382 c 0
 1961 2382 1812 2460 1812 2644 c 0
 1812 2828 1951 2918 2100 2918 c 0
 2206 2918 2307 2849 2339 2766 c 1
EndSplineSet
Ligature2: "'liga' Standard Ligatures lookup 0-1" f i
LCarets2: 1 0
EndChar

StartChar: uniFB02
Encoding: 64258 64258 292
GlifName: uniF_B_02
Width: 2759
VWidth: 4730
Flags: HMW
LayerCount: 2
Fore
SplineSet
2679 668 m 1
 2523 258 2260 -40 1898 -40 c 0
 1675 -40 1562 54 1562 278 c 0
 1562 298 1566 344 1570 368 c 2
 2171 2990 l 1
 2679 3154 l 1
 1986 172 l 2
 1982 148 1976 118 1976 98 c 0
 1976 52 1996 16 2050 16 c 0
 2286 16 2534 308 2671 672 c 1
 2679 668 l 1
247 1884 m 1
 1651 1884 l 1
 1651 1872 l 1
 247 1872 l 1
 247 1884 l 1
2316 2677 m 0
 2316 2489 2197 2382 2044 2382 c 0
 1911 2382 1762 2460 1762 2644 c 0
 1762 2828 1901 2918 2050 2918 c 0
 2156 2918 2254 2849 2286 2766 c 1
 2258 2913 2122 3098 1812 3098 c 0
 1475 3098 1208 2712 1119 2212 c 2
 710 -50 l 2
 604 -636 205 -1064 -327 -1064 c 0
 -689 -1064 -855 -821 -855 -629 c 0
 -855 -441 -734 -334 -581 -334 c 0
 -448 -334 -300 -412 -300 -596 c 0
 -300 -780 -439 -870 -588 -870 c 0
 -694 -870 -790 -803 -822 -718 c 1
 -794 -865 -629 -1050 -350 -1050 c 0
 -64 -1050 131 -664 220 -164 c 2
 629 2098 l 2
 735 2684 1204 3112 1788 3112 c 0
 2168 3112 2316 2885 2316 2677 c 0
EndSplineSet
Ligature2: "'liga' Standard Ligatures lookup 0-1" f l
LCarets2: 1 0
EndChar

StartChar: uniFB03
Encoding: 64259 64259 293
GlifName: uniF_B_03
Width: 3831
VWidth: 4730
Flags: HMW
LayerCount: 2
Fore
SplineSet
3751 668 m 1
 3595 258 3332 -40 2970 -40 c 0
 2747 -40 2634 54 2634 278 c 0
 2634 298 2637 344 2642 368 c 2
 2992 1872 l 1
 247 1872 l 1
 247 1884 l 1
 3466 1884 l 1
 3058 172 l 2
 3054 148 3050 118 3050 98 c 0
 3050 52 3070 16 3124 16 c 0
 3356 16 3600 286 3743 672 c 1
 3751 668 l 1
3576 2677 m 0
 3576 2489 3455 2382 3302 2382 c 0
 3169 2382 3021 2460 3021 2644 c 0
 3021 2828 3160 2918 3309 2918 c 0
 3415 2918 3516 2849 3548 2766 c 1
 3514 2924 3340 3098 3000 3098 c 0
 2632 3098 2417 2721 2326 2212 c 2
 1962 156 l 2
 1856 -430 1458 -860 894 -860 c 0
 502 -860 336 -616 336 -424 c 0
 336 -236 457 -128 610 -128 c 0
 743 -128 890 -208 890 -392 c 0
 890 -576 751 -665 602 -665 c 0
 496 -665 400 -599 368 -514 c 1
 396 -661 562 -846 872 -846 c 0
 1190 -846 1383 -460 1472 40 c 2
 1836 2098 l 2
 1942 2684 2362 3112 2976 3112 c 0
 3394 3112 3576 2897 3576 2677 c 0
2182 2562 m 1
 2154 2709 1986 2894 1676 2894 c 0
 1358 2894 1164 2510 1075 2010 c 2
 710 -50 l 2
 604 -636 205 -1064 -327 -1064 c 0
 -689 -1064 -855 -821 -855 -629 c 0
 -855 -441 -734 -334 -581 -334 c 0
 -448 -334 -300 -412 -300 -596 c 0
 -300 -780 -439 -870 -588 -870 c 0
 -694 -870 -790 -803 -822 -718 c 1
 -794 -865 -629 -1050 -350 -1050 c 0
 -64 -1050 131 -664 220 -164 c 2
 585 1892 l 2
 691 2478 1088 2908 1652 2908 c 0
 2044 2908 2212 2664 2212 2472 c 0
 2212 2284 2092 2176 1939 2176 c 0
 1806 2176 1657 2256 1657 2440 c 0
 1657 2624 1796 2713 1945 2713 c 0
 2051 2713 2150 2645 2182 2562 c 1
EndSplineSet
Ligature2: "'liga' Standard Ligatures lookup 0-1" f f i
LCarets2: 2 0 0
EndChar

StartChar: uniFB04
Encoding: 64260 64260 294
GlifName: uniF_B_04
Width: 3968
VWidth: 4730
Flags: HMW
LayerCount: 2
Fore
SplineSet
3887 668 m 1
 3731 258 3470 -40 3108 -40 c 0
 2885 -40 2770 54 2770 278 c 0
 2770 298 2774 344 2778 368 c 2
 3378 2990 l 1
 3887 3154 l 1
 3194 172 l 2
 3190 148 3186 118 3186 98 c 0
 3186 52 3206 16 3260 16 c 0
 3496 16 3742 308 3879 672 c 1
 3887 668 l 1
247 1884 m 1
 2858 1884 l 1
 2858 1872 l 1
 247 1872 l 1
 247 1884 l 1
3494 2766 m 1
 3466 2913 3330 3098 3020 3098 c 0
 2683 3098 2415 2712 2326 2212 c 2
 1962 156 l 2
 1856 -430 1473 -860 909 -860 c 0
 517 -860 350 -616 350 -424 c 0
 350 -236 471 -128 624 -128 c 0
 757 -128 906 -208 906 -392 c 0
 906 -576 767 -665 618 -665 c 0
 512 -665 412 -599 380 -514 c 1
 408 -661 576 -846 886 -846 c 0
 1204 -846 1397 -460 1486 40 c 2
 1836 2098 l 2
 1942 2684 2412 3112 2996 3112 c 0
 3388 3112 3525 2869 3525 2677 c 0
 3525 2489 3405 2382 3252 2382 c 0
 3119 2382 2969 2460 2969 2644 c 0
 2969 2828 3108 2918 3257 2918 c 0
 3363 2918 3462 2849 3494 2766 c 1
2182 2562 m 1
 2154 2709 1986 2894 1676 2894 c 0
 1358 2894 1164 2510 1075 2010 c 2
 710 -50 l 2
 604 -636 205 -1064 -327 -1064 c 0
 -689 -1064 -855 -821 -855 -629 c 0
 -855 -441 -734 -334 -581 -334 c 0
 -448 -334 -300 -412 -300 -596 c 0
 -300 -780 -439 -870 -588 -870 c 0
 -694 -870 -790 -803 -822 -718 c 1
 -794 -865 -629 -1050 -350 -1050 c 0
 -64 -1050 131 -664 220 -164 c 2
 585 1892 l 2
 691 2478 1088 2908 1652 2908 c 0
 2044 2908 2212 2664 2212 2472 c 0
 2212 2284 2092 2176 1939 2176 c 0
 1806 2176 1657 2256 1657 2440 c 0
 1657 2624 1796 2713 1945 2713 c 0
 2051 2713 2150 2645 2182 2562 c 1
EndSplineSet
Ligature2: "'liga' Standard Ligatures lookup 0-1" f f l
LCarets2: 2 0 0
EndChar

StartChar: ogonek
Encoding: 731 731 295
GlifName: ogonek
Width: 2252
Flags: HMW
LayerCount: 2
Fore
SplineSet
1374 -462 m 1
 1312 -576 1173 -782 852 -782 c 0
 624 -782 408 -708 408 -472 c 0
 408 -144 903 84 1194 176 c 1
 1198 169 l 1
 1072 95 877 -120 877 -440 c 0
 877 -622 944 -716 1037 -716 c 0
 1196 -716 1308 -559 1363 -458 c 1
 1374 -462 l 1
EndSplineSet
EndChar

StartChar: dotlessi
Encoding: 305 305 296
GlifName: dotlessi
Width: 1403
VWidth: 4730
Flags: HMW
LayerCount: 2
Fore
SplineSet
1322 668 m 1
 1166 258 904 -40 542 -40 c 0
 319 -40 204 54 204 278 c 0
 204 298 207 344 212 368 c 2
 564 1872 l 1
 261 1872 l 1
 261 1884 l 1
 1038 1884 l 1
 628 172 l 2
 624 148 620 118 620 98 c 0
 620 52 640 16 694 16 c 0
 926 16 1171 286 1314 672 c 1
 1322 668 l 1
EndSplineSet
EndChar

StartChar: uni0237
Encoding: 567 567 297
GlifName: uni0237
Width: 1149
VWidth: 4730
Flags: HMW
LayerCount: 2
Fore
SplineSet
-750 -682 m 1
 -720 -865 -534 -1050 -306 -1050 c 0
 72 -1050 70 -410 184 82 c 2
 602 1872 l 1
 218 1872 l 1
 218 1884 l 1
 1062 1884 l 1
 660 -50 l 2
 554 -562 248 -1064 -284 -1064 c 0
 -594 -1064 -778 -800 -778 -618 c 0
 -778 -430 -625 -302 -472 -302 c 0
 -339 -302 -213 -398 -213 -560 c 0
 -213 -732 -359 -838 -513 -838 c 0
 -637 -838 -714 -759 -750 -682 c 1
EndSplineSet
EndChar

StartChar: kgreenlandic
Encoding: 312 312 306
GlifName: kgreenlandic
Width: 2388
VWidth: 4730
Flags: HMW
LayerCount: 2
Fore
SplineSet
2302 668 m 1
 2146 258 1894 -40 1542 -40 c 0
 1319 -40 1198 54 1198 278 c 0
 1198 298 1202 344 1206 368 c 2
 1248 574 l 2
 1301 812 1449 1160 1186 1160 c 0
 937 1160 869 928 836 778 c 1
 826 778 l 1
 904 1132 1065 1189 1263 1189 c 0
 1545 1189 1809 1028 1687 496 c 2
 1600 114 l 2
 1600 106 1596 86 1596 78 c 0
 1596 32 1624 12 1678 12 c 0
 1912 12 2155 298 2293 672 c 1
 2302 668 l 1
924 1024 m 1
 932 1032 l 1
 948 1020 992 1004 1047 1004 c 0
 1229 1004 1316 1214 1422 1476 c 0
 1536 1754 1692 1926 1906 1926 c 0
 2110 1926 2266 1785 2266 1553 c 0
 2266 1359 2143 1266 2010 1266 c 0
 1877 1266 1766 1365 1766 1511 c 0
 1766 1645 1874 1744 2008 1744 c 0
 2140 1744 2226 1662 2252 1576 c 1
 2242 1776 2111 1914 1907 1914 c 0
 1701 1914 1550 1754 1434 1470 c 0
 1321 1192 1231 992 1047 992 c 0
 989 992 941 1012 924 1024 c 1
617 1870 m 1
 253 1870 l 1
 253 1882 l 1
 1093 1882 l 1
 654 0 l 1
 184 0 l 1
 617 1870 l 1
EndSplineSet
EndChar

StartChar: breve
Encoding: 728 728 307
GlifName: breve
Width: 1187
VWidth: 4730
Flags: HMW
LayerCount: 2
Fore
SplineSet
668 3108 m 1
 633 2920 822 2826 1044 2826 c 0
 1266 2826 1539 2908 1585 3108 c 1
 1597 3108 l 1
 1557 2858 1403 2518 1004 2518 c 0
 646 2518 616 2858 656 3108 c 1
 668 3108 l 1
EndSplineSet
EndChar

StartChar: thorn
Encoding: 254 254 318
GlifName: thorn
Width: 2425
VWidth: 4730
Flags: HMW
LayerCount: 2
Fore
SplineSet
815 600 m 0
 815 320 892 58 1080 58 c 0
 1414 58 1776 795 1776 1343 c 0
 1776 1646 1679 1845 1501 1845 c 0
 1096 1845 815 1056 815 600 c 0
805 600 m 0
 805 1042 1066 1928 1644 1928 c 0
 1926 1928 2305 1762 2305 1230 c 0
 2305 410 1654 -37 1238 -37 c 0
 926 -37 805 224 805 600 c 0
-328 -1012 m 1
 696 -1012 l 1
 696 -1024 l 1
 -328 -1024 l 1
 -328 -1012 l 1
874 3060 m 1
 584 3060 l 1
 584 3072 l 1
 1350 3072 l 1
 920 1192 l 1
 846 918 l 1
 812 692 l 1
 410 -1024 l 1
 -60 -1024 l 1
 874 3060 l 1
EndSplineSet
EndChar

StartChar: Thorn
Encoding: 222 222 319
GlifName: T_horn
Width: 2611
Flags: HMW
LayerCount: 2
Fore
SplineSet
1305 738 m 2
 855 738 l 1
 855 750 l 1
 1254 750 l 2
 1792 750 2081 1397 2081 1843 c 0
 2081 2085 2006 2446 1664 2446 c 2
 1049 2446 l 1
 1049 2458 l 1
 1715 2458 l 2
 2251 2458 2652 2264 2652 1772 c 0
 2652 1158 2129 738 1305 738 c 2
-122 12 m 1
 1126 12 l 1
 1126 0 l 1
 -122 0 l 1
 -122 12 l 1
582 3072 m 1
 1832 3072 l 1
 1832 3060 l 1
 582 3060 l 1
 582 3072 l 1
946 3072 m 1
 1458 3072 l 1
 748 0 l 1
 236 0 l 1
 946 3072 l 1
EndSplineSet
EndChar

StartChar: Lslash
Encoding: 321 321 324
GlifName: L_slash
Width: 2392
Flags: HMW
LayerCount: 2
Fore
SplineSet
154 1474 m 1
 1669 2376 l 1
 1669 2364 l 1
 154 1462 l 1
 154 1474 l 1
EndSplineSet
Refer: 23 76 N 1 0 0 1 0 0 2
EndChar

StartChar: lslash
Encoding: 322 322 325
GlifName: lslash
Width: 1361
VWidth: 4730
Flags: HMW
LayerCount: 2
Fore
SplineSet
134 1597 m 1
 1423 2376 l 1
 1423 2364 l 1
 134 1585 l 1
 134 1597 l 1
EndSplineSet
Refer: 49 108 N 1 0 0 1 0 0 2
EndChar

StartChar: eth
Encoding: 240 240 329
GlifName: eth
Width: 2394
VWidth: 4730
Flags: HMW
LayerCount: 2
Fore
SplineSet
911 2580 m 1
 2672 2580 l 1
 2672 2568 l 1
 911 2568 l 1
 911 2580 l 1
2384 1618 m 0
 2384 758 1728 -40 1018 -40 c 0
 492 -40 164 184 164 716 c 0
 164 1556 872 2008 1368 2008 c 0
 1756 2008 1825 1734 1815 1254 c 1
 1798 1434 l 1
 1798 1690 1721 1967 1479 1967 c 0
 1063 1967 684 1192 684 552 c 0
 684 258 742 -28 1014 -28 c 0
 1409 -28 1798 916 1798 1434 c 1
 1802 1435 l 1
 1814 2299 1826 3100 972 3100 c 1
 972 3112 l 1
 1937 3112 2384 2439 2384 1618 c 0
EndSplineSet
EndChar

StartChar: OE
Encoding: 338 338 330
GlifName: O_E_
Width: 4022
Flags: HMW
LayerCount: 2
Fore
SplineSet
2054 3072 m 1
 2054 3042 l 1
 1320 3042 841 1707 841 757 c 0
 841 349 966 30 1362 30 c 1
 1362 0 l 1
 736 0 278 336 278 1034 c 0
 278 2193 1141 3072 2054 3072 c 1
EndSplineSet
Refer: 16 69 N 1 0 0 1 1552 0 2
EndChar

StartChar: germandbls
Encoding: 223 223 332
GlifName: germandbls
Width: 2962
VWidth: 4730
Flags: HMW
LayerCount: 2
Fore
SplineSet
2840 830 m 0
 2840 205 2302 -40 1878 -40 c 0
 1494 -40 1303 212 1303 516 c 0
 1303 756 1444 906 1618 906 c 0
 1771 906 1891 803 1891 635 c 0
 1891 483 1732 368 1594 368 c 0
 1450 368 1340 461 1318 573 c 1
 1288 243 1485 -20 1837 -20 c 0
 2201 -20 2314 454 2314 840 c 0
 2314 1226 2159 1654 1733 1654 c 1
 1733 1662 l 1
 2475 1662 2840 1362 2840 830 c 0
-102 12 m 1
 1127 12 l 1
 1127 0 l 1
 -102 0 l 1
 -102 12 l 1
1733 1658 m 1
 1733 1668 l 1
 2261 1668 2560 2148 2560 2492 c 0
 2560 2786 2454 3100 2090 3100 c 0
 1500 3100 1334 2522 1208 1970 c 2
 757 0 l 1
 266 0 l 1
 722 2012 l 2
 880 2716 1341 3112 2101 3112 c 0
 2645 3112 3092 2904 3092 2462 c 0
 3092 1992 2557 1658 1733 1658 c 1
EndSplineSet
EndChar

StartChar: uni0212
Encoding: 530 530 333
GlifName: uni0212
Width: 3035
VWidth: 0
Flags: HMW
LayerCount: 2
Fore
SplineSet
2451 3358 m 1
 2486 3546 2295 3642 2073 3642 c 0
 1851 3642 1578 3558 1532 3358 c 1
 1520 3358 l 1
 1560 3608 1715 3949 2114 3949 c 0
 2502 3949 2503 3608 2463 3358 c 1
 2451 3358 l 1
EndSplineSet
Refer: 29 82 N 1 0 0 1 0 0 3
EndChar

StartChar: uni0213
Encoding: 531 531 334
GlifName: uni0213
Width: 1782
VWidth: 0
Flags: HMW
LayerCount: 2
Fore
SplineSet
1666 2180 m 1
 1701 2368 1511 2464 1289 2464 c 0
 1067 2464 794 2380 748 2180 c 1
 736 2180 l 1
 776 2430 931 2772 1330 2772 c 0
 1718 2772 1719 2430 1679 2180 c 1
 1666 2180 l 1
EndSplineSet
Refer: 55 114 N 1 0 0 1 0 0 3
EndChar

StartChar: circumflex
Encoding: 710 710 335
GlifName: circumflex
Width: 1678
Flags: HMW
LayerCount: 2
Fore
SplineSet
1370 2918 m 1
 660 2648 l 1
 656 2652 l 1
 1226 3154 l 1
 1534 3154 l 1
 1924 2652 l 1
 1920 2648 l 1
 1370 2918 l 1
EndSplineSet
EndChar

StartChar: caron
Encoding: 711 711 336
GlifName: caron
Width: 1678
Flags: HMW
LayerCount: 2
Fore
SplineSet
1281 2948 m 1
 1995 3218 l 1
 1999 3214 l 1
 1434 2714 l 1
 1126 2714 l 1
 729 3214 l 1
 733 3218 l 1
 1281 2948 l 1
EndSplineSet
EndChar

StartChar: pi
Encoding: 960 960 337
GlifName: pi
Width: 2501
VWidth: 4730
Flags: HMW
LayerCount: 2
Fore
SplineSet
355 -40 m 0
 177 -40 82 64 82 186 c 0
 82 536 602 388 820 1162 c 2
 1012 1844 l 1
 1242 1844 l 1
 1016 996 l 2
 856 390 705 -40 355 -40 c 0
2277 422 m 1
 2173 136 1990 -40 1702 -40 c 0
 1488 -40 1300 121 1366 387 c 2
 1704 1720 l 1
 2195 1720 l 1
 1838 386 l 2
 1798 234 1864 188 1962 188 c 0
 2118 188 2191 284 2269 426 c 1
 2277 422 l 1
2564 1884 m 1
 2416 1414 l 1
 338 1414 l 1
 264 1106 l 1
 252 1106 l 1
 438 1884 l 1
 2564 1884 l 1
EndSplineSet
EndChar

StartChar: uni1E9E
Encoding: 7838 7838 338
GlifName: uni1E_9E_
Width: 3392
VWidth: 4730
Flags: HMW
LayerCount: 2
Fore
SplineSet
1293 578 m 0
 1293 772 1413 906 1587 906 c 0
 1740 906 1860 803 1860 635 c 0
 1860 483 1713 368 1575 368 c 0
 1422 368 1339 472 1309 538 c 1
 1319 245 1537 -12 1975 -12 c 0
 2493 -12 2729 516 2729 962 c 0
 2729 1286 2620 1654 2164 1654 c 1
 2164 1662 l 1
 2968 1662 3270 1422 3270 952 c 0
 3270 297 2687 -40 2047 -40 c 0
 1483 -40 1293 266 1293 578 c 0
-102 12 m 1
 1157 12 l 1
 1157 0 l 1
 -102 0 l 1
 -102 12 l 1
2164 1658 m 1
 2164 1668 l 1
 2846 1668 2975 2272 2975 2554 c 0
 2975 2786 2876 3100 2368 3100 c 0
 1666 3100 1356 2456 1208 1817 c 2
 788 0 l 1
 266 0 l 1
 692 1858 l 2
 871 2647 1495 3112 2378 3112 c 0
 3138 3112 3522 2873 3522 2492 c 0
 3522 2113 3141 1658 2164 1658 c 1
EndSplineSet
EndChar

StartChar: uni203D
Encoding: 8253 8253 339
GlifName: uni203D_
Width: 2374
Flags: HMW
LayerCount: 2
Fore
SplineSet
1753 2197 m 0
 1675 1762 1290 1538 1126 924 c 1
 1118 924 l 1
 1240 1538 1208 1752 1208 2064 c 0
 1208 2314 1280 2501 1500 2501 c 0
 1664 2501 1785 2375 1753 2197 c 0
2064 2498 m 0
 2064 2802 1924 3095 1550 3095 c 0
 1056 3095 650 2749 600 2483 c 1
 638 2535 725 2624 847 2624 c 0
 975 2624 1112 2530 1112 2360 c 0
 1112 2166 949 2084 827 2084 c 0
 685 2084 564 2191 564 2379 c 0
 564 2735 1032 3112 1592 3112 c 0
 2087 3112 2560 2918 2560 2416 c 0
 2560 1822 1873 1372 1283 1372 c 1
 1283 1382 l 1
 1673 1508 2064 1994 2064 2498 c 0
EndSplineSet
Refer: 1 46 N 1 0 0 1 600 0 2
EndChar

StartChar: R.alt
Encoding: 65536 -1 340
GlifName: R_.alt
Width: 2948
Flags: HMW
LayerCount: 2
Fore
SplineSet
2638 0 m 1
 2572 0 2478 0 2330 0 c 0
 1314 0 2364 1572 1398 1572 c 2
 988 1572 l 1
 988 1582 l 1
 1531 1582 l 2
 2927 1582 2052 12 2534 12 c 0
 2580 12 2638 12 2638 12 c 1
 2638 0 l 1
957 3072 m 1
 1470 3072 l 1
 752 0 l 1
 241 0 l 1
 957 3072 l 1
-159 12 m 1
 1204 12 l 1
 1204 0 l 1
 -159 0 l 1
 -159 12 l 1
1551 1572 m 2
 988 1572 l 1
 988 1582 l 1
 1500 1582 l 2
 2068 1582 2314 2143 2314 2529 c 0
 2314 2729 2263 3060 1889 3060 c 2
 517 3060 l 1
 517 3072 l 1
 1961 3072 l 2
 2497 3072 2872 2908 2872 2458 c 0
 2872 1884 2375 1572 1551 1572 c 2
EndSplineSet
EndChar

StartChar: J.alt
Encoding: 65537 -1 341
GlifName: J_.alt
Width: 2383
Flags: HMW
LayerCount: 2
Fore
SplineSet
1438 3072 m 1
 2856 3072 l 1
 2856 3060 l 1
 1438 3060 l 1
 1438 3072 l 1
1930 3072 m 1
 2446 3072 l 1
 1996 1146 l 2
 1848 524 1340 -40 680 -40 c 0
 242 -40 20 264 20 602 c 0
 20 916 193 1086 398 1086 c 0
 583 1086 729 980 729 761 c 0
 729 587 589 442 378 442 c 0
 206 442 74 554 38 658 c 1
 9 290 248 -28 680 -28 c 0
 1176 -28 1361 476 1479 1024 c 2
 1930 3072 l 1
EndSplineSet
EndChar

StartChar: four.alt
Encoding: 65538 -1 342
GlifName: four.alt
Width: 2559
VWidth: 4730
Flags: HMW
LayerCount: 2
Fore
SplineSet
2253 2040 m 1
 1798 -4 l 1
 1286 -4 l 1
 1710 1907 l 1
 1873 1907 2141 1980 2253 2040 c 1
2138 12 m 1
 2138 0 l 1
 930 0 l 1
 930 12 l 1
 2138 12 l 1
84 802 m 1
 2355 802 l 1
 2355 794 l 1
 62 794 l 1
 666 1614 1794 2448 1906 3072 c 1
 2449 3072 l 1
 2361 2437 688 1566 84 802 c 1
EndSplineSet
EndChar

StartChar: fj.lig
Encoding: 65539 -1 343
GlifName: fj.lig
Width: 2436
VWidth: 4730
Flags: HMW
LayerCount: 2
Fore
SplineSet
1454 102 m 2
 1802 1869 l 1
 247 1872 l 1
 247 1884 l 1
 2265 1884 l 1
 1936 156 l 2
 1839 -359 1445 -860 881 -860 c 0
 509 -860 326 -626 326 -428 c 0
 326 -240 463 -128 616 -128 c 0
 749 -128 890 -214 890 -385 c 0
 890 -567 744 -663 600 -663 c 0
 470 -663 378 -575 360 -513 c 1
 390 -667 564 -847 876 -847 c 0
 1224 -847 1355 -393 1454 102 c 2
2346 2757 m 1
 2310 2925 2142 3098 1790 3098 c 0
 1432 3098 1208 2712 1119 2212 c 2
 710 -50 l 2
 604 -632 222 -1064 -310 -1064 c 0
 -672 -1064 -840 -821 -840 -629 c 0
 -840 -441 -719 -334 -566 -334 c 0
 -433 -334 -284 -412 -284 -596 c 0
 -284 -780 -428 -870 -577 -870 c 0
 -715 -870 -797 -759 -816 -709 c 1
 -788 -847 -640 -1048 -334 -1048 c 0
 -48 -1048 149 -664 235 -164 c 2
 629 2098 l 2
 731 2684 1153 3112 1767 3112 c 0
 2211 3112 2368 2869 2368 2677 c 0
 2368 2489 2247 2382 2094 2382 c 0
 1961 2382 1812 2460 1812 2644 c 0
 1812 2828 1956 2918 2105 2918 c 0
 2239 2918 2318 2819 2346 2757 c 1
EndSplineSet
LCarets2: 1 0
Ligature2: "'liga' Standard Ligatures lookup 0-1" f j
EndChar

StartChar: v.alt
Encoding: 65540 -1 344
Width: 2020
VWidth: 4730
Flags: HW
LayerCount: 2
Fore
SplineSet
778 1946 m 1
 782 1938 l 1
 614 1844 574 1710 574 1578 c 0
 574 1229 999 1060 999 552 c 0
 999 482 977 248 969 154 c 1
 1615 501 1990 870 1990 1410 c 0
 1990 1494 1976 1606 1948 1646 c 1
 1937 1530 1836 1352 1620 1352 c 0
 1426 1352 1329 1503 1329 1636 c 0
 1329 1789 1448 1922 1630 1922 c 0
 1918 1922 2002 1660 2002 1410 c 0
 2002 718 1398 340 600 -50 c 1
 497 -23 l 1
 505 67 524 352 524 434 c 0
 524 750 122 1020 122 1324 c 0
 122 1652 492 1838 778 1946 c 1
EndSplineSet
EndChar

StartChar: uni2116
Encoding: 8470 8470 345
Width: 4570
Flags: HW
LayerCount: 2
Fore
SplineSet
3355 1294 m 1
 4368 1294 l 1
 4364 1286 l 1
 3351 1286 l 1
 3355 1294 l 1
4275 3112 m 0
 4627 3112 4850 2924 4850 2574 c 0
 4850 1944 4388 1556 3918 1556 c 0
 3566 1556 3344 1744 3344 2094 c 0
 3344 2724 3805 3112 4275 3112 c 0
3722 1917 m 0
 3722 1655 3793 1568 3935 1568 c 0
 4212 1568 4470 2258 4470 2752 c 0
 4470 3014 4400 3100 4258 3100 c 0
 3981 3100 3722 2411 3722 1917 c 0
EndSplineSet
Refer: 25 78 N 1 0 0 1 106 0 2
EndChar

StartChar: Euro
Encoding: 8364 8364 346
Width: 3020
Flags: HW
LayerCount: 2
Fore
SplineSet
3160 2585 m 1
 3116 2805 2850 3096 2445 3096 c 0
 1671 3096 1184 1891 1184 922 c 0
 1184 456 1335 -16 1740 -16 c 0
 2154 -16 2598 337 2744 730 c 1
 2756 730 l 1
 2608 332 2168 -40 1672 -40 c 0
 1156 -40 612 296 612 1126 c 0
 612 2221 1455 3112 2402 3112 c 0
 2902 3112 3184 2736 3184 2493 c 0
 3184 2295 3042 2188 2900 2188 c 0
 2778 2188 2616 2274 2616 2468 c 0
 2616 2642 2780 2744 2918 2744 c 0
 3042 2744 3132 2650 3160 2585 c 1
EndSplineSet
Refer: 88 61 N 1 0 0 1 -122 -286 2
EndChar

